#N canvas 99 153 785 632 10;
#X text 10 8 Feral Vocaloid ~;
#X text 10 22 Live audio in -> Pink Trombone parameters out.;
#X text 10 36 Requires: glottal~.pd and tract~.pd in the same folder \, ELSE library.;
#X obj 80 90 adc~ 1;
#X obj 80 130 hip~ 80;
#X obj 80 160 lop~ 5000;
#X text 50 208 --- glottal analysis ---;
#X text 400 208 --- tract analysis ---;
#X obj 67 234 glottal~;
#X obj 408 265 tract~;
#X obj 40 370 outlet;
#X obj 140 370 outlet;
#X obj 240 370 outlet;
#X obj 340 370 outlet;
#X obj 450 370 outlet;
#X obj 560 370 outlet;
#X text 26 386 frequency;
#X text 128 386 intensity;
#X text 228 386 loudness;
#X text 328 386 tenseness;
#X text 432 386 tongue.index;
#X text 542 386 tongue.diam;
#X floatatom 42 413 5 0 0 0 - - - 0;
#X floatatom 127 408 5 0 0 0 - - - 0;
#X floatatom 221 410 5 0 0 0 - - - 0;
#X floatatom 316 408 5 0 0 0 - - - 0;
#X floatatom 494 415 5 0 0 0 - - - 0;
#X floatatom 562 412 5 0 0 0 - - - 0;
#X connect 3 0 4 0;
#X connect 4 0 5 0;
#X connect 5 0 8 0;
#X connect 5 0 9 0;
#X connect 8 0 10 0;
#X connect 8 0 22 0;
#X connect 8 1 11 0;
#X connect 8 1 23 0;
#X connect 8 2 12 0;
#X connect 8 2 24 0;
#X connect 8 3 13 0;
#X connect 8 3 25 0;
#X connect 8 4 9 1;
#X connect 8 5 9 2;
#X connect 9 0 14 0;
#X connect 9 0 26 0;
#X connect 9 1 15 0;
#X connect 9 1 27 0;
