#N canvas 20 44 720 520 12;
#X text 10 8 tract~ - bandpass formant estimation -> tongue position;
#X text 10 22 Inlets: 0=audio~ 1=F0-Hz(reserved) 2=voiced(0/1);
#X text 10 36 Outlets: 0=tongue.index(12-29) 1=tongue.diam(2.05-3.5);
#X obj 50 72 inlet~;
#X obj 220 72 inlet;
#X obj 380 72 inlet;
#X obj 380 105 select 0 1;
#X text 220 88 F0 reserved;
#X text 10 55 F1 bank (250-850Hz) -> tongue.diam;
#X text 360 55 F2 bank (900-2400Hz) -> tongue.index;
#X obj 30 145 bp~ 300 5;
#X obj 120 145 bp~ 550 5;
#X obj 210 145 bp~ 850 5;
#X obj 30 180 env~ 512;
#X obj 120 180 env~ 512;
#X obj 210 180 env~ 512;
#X obj 60 220 expr (300*$f1 + 550*$f2 + 850*$f3) / ($f1 + $f2 + $f3 + 0.001);
#X obj 60 258 f;
#X obj 60 288 pack f 80;
#X obj 60 318 line;
#X obj 60 348 expr ($f1 - 250) * 0.00264 + 2.05;
#X obj 60 378 clip 2.05 3.5;
#X obj 390 145 bp~ 900 5;
#X obj 480 145 bp~ 1500 5;
#X obj 570 145 bp~ 2400 5;
#X obj 390 180 env~ 512;
#X obj 480 180 env~ 512;
#X obj 570 180 env~ 512;
#X obj 420 220 expr (900*$f1 + 1500*$f2 + 2400*$f3) / ($f1 + $f2 + $f3 + 0.001);
#X obj 420 258 f;
#X obj 420 288 pack f 80;
#X obj 420 318 line;
#X obj 420 348 expr ($f1 - 700) * 0.010625 + 12;
#X obj 420 378 clip 12 29;
#X obj 420 448 outlet;
#X obj 60 448 outlet;
#X text 412 464 tongue.index;
#X text 56 464 tongue.diam;
#X text 10 390 Calibration: bp~ Q sets bandwidth. Lower Q = wider \, more tolerant. Adjust expr offsets to your voice.;
#X connect 3 0 10 0;
#X connect 3 0 11 0;
#X connect 3 0 12 0;
#X connect 3 0 22 0;
#X connect 3 0 23 0;
#X connect 3 0 24 0;
#X connect 5 0 6 0;
#X connect 10 0 13 0;
#X connect 11 0 14 0;
#X connect 12 0 15 0;
#X connect 13 0 16 0;
#X connect 14 0 16 1;
#X connect 15 0 16 2;
#X connect 16 0 17 1;
#X connect 6 1 17 0;
#X connect 17 0 18 0;
#X connect 18 0 19 0;
#X connect 19 0 20 0;
#X connect 20 0 21 0;
#X connect 21 0 35 0;
#X connect 22 0 25 0;
#X connect 23 0 26 0;
#X connect 24 0 27 0;
#X connect 25 0 28 0;
#X connect 26 0 28 1;
#X connect 27 0 28 2;
#X connect 28 0 29 1;
#X connect 6 1 29 0;
#X connect 29 0 30 0;
#X connect 30 0 31 0;
#X connect 31 0 32 0;
#X connect 32 0 33 0;
#X connect 33 0 34 0;
