#N canvas 222 56 598 644 10;
#N canvas 85 309 793 577 benjolinOsc1 0;
#X obj 237 180 *~;
#X obj 252 154 line~;
#X obj 252 133 pack 0 50;
#X obj 252 108 / 2;
#X obj 237 56 r~ runglerOut;
#X obj 252 81 r oscRungle1;
#X obj 72 55 r oscFreq1;
#X obj 85 330 throw~ scope0;
#X obj 72 142 line~;
#X obj 73 196 +~;
#X obj 72 119 pack 0 50;
#X obj 73 253 mtof~;
#X obj 194 315 expr~ if ($v1 > 0.5 \, 1 \, 0);
#X obj 192 382 throw~ scope1;
#X obj 233 358 s~ oscPulse1;
#X obj 69 363 s~ triangle1;
#X obj 73 230 clip~ -60 127;
#N canvas 551 103 908 804 bl-tri.mmb~ 0;
#X obj 104 68 inlet~;
#X obj 395 95 samplerate~;
#X obj 395 152 / 2;
#X obj 395 10 loadbang;
#X obj 381 202 /~;
#X obj 114 728 outlet~;
#X obj 259 652 /~ 1;
#X obj 235 69 inlet;
#X obj 259 628 -~ 30;
#X obj 489 84 v \$1-bl-maxsamprate.mmb;
#X obj 395 125 min 44100;
#X obj 395 62 t b b;
#X obj 489 111 sel 0;
#X msg 489 135 44100;
#X obj 489 51 r \$1-bl-getmaxsamprate.mmb;
#X obj 430 199 / 30;
#X obj 430 224 int;
#X obj 430 269 s \$0-maxharmonics;
#X obj 430 246 - 1;
#N canvas 290 79 818 674 triangle 1;
#X obj 467 317 expr~ if($v1<1 \, $v1 \, 2-$v1);
#X obj 404 103 expr~ abs(fmod($v1 \, 2));
#X obj 100 307 *~ 1027;
#X obj 100 330 +~ 1;
#X obj 100 245 -~;
#X obj 100 280 clip~ 0 1;
#X obj 176 112 expr~ int($v1);
#X obj 282 307 *~ 1027;
#X obj 282 330 +~ 1;
#X obj 282 245 -~;
#X obj 282 280 clip~ 0 1;
#X obj 80 111 *~ 1024;
#X obj 80 356 +~;
#X obj 262 356 +~;
#X obj 80 46 inlet~;
#X text 95 64 phasor;
#X obj 290 46 inlet~;
#X text 338 52 number of harmonics;
#X obj 207 462 outlet~;
#X text 543 340 ping pong crossfader;
#X text 439 383 evens;
#X text 41 382 odds;
#X text 447 162 <-- these guys make sure that one tabread is using on less harmonic than the other. If int(harmonics) is even \, then odds has on less harmonic \, and vise versa. They switch when the crossfader brings them to silence.;
#X obj 163 243 r \$0-maxharmonics;
#X obj 339 161 expr~ $v1<1;
#X obj 340 200 expr~ $v1>1;
#X obj 80 383 tabread4~ \$1-bl-tritable.mmb;
#X obj 262 384 tabread4~ \$1-bl-tritable.mmb;
#N canvas 765 112 450 300 lin-xfade.mmb~ 0;
#X obj 60 50 inlet~;
#X obj 170 50 inlet~;
#X obj 280 50 inlet~;
#X obj 76 165 *~;
#X obj 164 164 *~;
#X obj 274 89 clip~ 0 1;
#X obj 101 121 expr~ 1-$v1;
#X obj 126 215 outlet~;
#X text 342 227 .mmb;
#X connect 0 0 3 0;
#X connect 1 0 4 0;
#X connect 2 0 5 0;
#X connect 3 0 7 0;
#X connect 4 0 7 0;
#X connect 5 0 6 0;
#X connect 5 0 4 1;
#X connect 6 0 3 1;
#X restore 207 424 pd lin-xfade.mmb~;
#X connect 0 0 28 2;
#X connect 1 0 0 0;
#X connect 1 0 24 0;
#X connect 1 0 25 0;
#X connect 2 0 3 0;
#X connect 3 0 12 1;
#X connect 4 0 5 0;
#X connect 5 0 2 0;
#X connect 6 0 4 0;
#X connect 6 0 9 0;
#X connect 7 0 8 0;
#X connect 8 0 13 1;
#X connect 9 0 10 0;
#X connect 10 0 7 0;
#X connect 11 0 12 0;
#X connect 11 0 13 0;
#X connect 12 0 26 0;
#X connect 13 0 27 0;
#X connect 14 0 11 0;
#X connect 16 0 6 0;
#X connect 16 0 1 0;
#X connect 23 0 5 2;
#X connect 23 0 10 2;
#X connect 24 0 4 1;
#X connect 25 0 9 1;
#X connect 26 0 28 0;
#X connect 27 0 28 1;
#X connect 28 0 18 0;
#X restore 175 299 pd triangle;
#X obj 81 528 wrap~ 0.5;
#X obj 81 552 expr~ if($v1>.5 \, 1-$v1 \, $v1);
#X obj 81 487 +~ 1.25;
#X obj 80 578 *~ 4;
#X obj 80 600 -~ 1;
#X obj 395 32 t b b;
#X obj 321 18 r pd;
#X obj 321 40 route dsp;
#X obj 321 62 sel 1;
#N canvas 640 88 692 691 vphasor.mmb~ 0;
#X obj 91 291 samphold~;
#X obj 76 320 -~;
#X obj 185 54 inlet;
#X obj 76 434 wrap~;
#X obj 259 144 samplerate~;
#X obj 259 175 expr 1/($f1/1000);
#X obj 244 205 f;
#X obj 244 251 vline~;
#X obj 174 328 vline~;
#X msg 174 298 \$1;
#X obj 76 363 +~;
#X obj 259 115 loadbang;
#X obj 76 467 outlet~;
#X msg 244 228 -1 0 0 \, 0 0 \$1;
#X text 287 250 one-sample pulse;
#X text 279 437 .mmb;
#X obj 185 169 t f b;
#X obj 76 54 inlet~;
#N canvas 208 79 474 300 argument 0;
#X obj 42 40 inlet~;
#X obj 134 162 samphold~;
#X obj 186 132 expr~ $v1==0;
#X obj 133 63 sig~ \$1;
#X obj 133 133 *~ -1;
#X obj 134 185 +~ \$1;
#X obj 43 221 +~;
#X obj 43 251 outlet~;
#X obj 187 111 *~;
#X obj 254 42 inlet;
#X msg 254 64 0 0 0 \, 1 0 \$1;
#X obj 254 85 vline~;
#X text 212 108 in case signal is already present on load.;
#X connect 0 0 6 0;
#X connect 0 0 8 0;
#X connect 1 0 5 0;
#X connect 2 0 1 1;
#X connect 3 0 4 0;
#X connect 4 0 1 0;
#X connect 5 0 6 1;
#X connect 6 0 7 0;
#X connect 8 0 2 0;
#X connect 9 0 10 0;
#X connect 10 0 11 0;
#X connect 11 0 8 1;
#X restore 76 107 pd argument;
#X obj 76 192 phasor~;
#X obj 185 82 wrap;
#X obj 179 237 + 2;
#X connect 0 0 1 1;
#X connect 1 0 10 0;
#X connect 2 0 20 0;
#X connect 3 0 12 0;
#X connect 4 0 5 0;
#X connect 5 0 6 1;
#X connect 5 0 18 1;
#X connect 6 0 13 0;
#X connect 7 0 0 1;
#X connect 8 0 10 1;
#X connect 9 0 8 0;
#X connect 10 0 3 0;
#X connect 11 0 4 0;
#X connect 13 0 7 0;
#X connect 16 0 21 0;
#X connect 16 1 6 0;
#X connect 17 0 18 0;
#X connect 18 0 19 0;
#X connect 19 0 1 0;
#X connect 19 0 0 0;
#X connect 20 0 16 0;
#X connect 21 0 9 0;
#X restore 163 194 pd vphasor.mmb~;
#N canvas 388 49 501 351 lin-xfade.mmb~ 0;
#X obj 60 50 inlet~;
#X obj 170 50 inlet~;
#X obj 280 50 inlet~;
#X obj 76 165 *~;
#X obj 164 164 *~;
#X obj 274 89 clip~ 0 1;
#X obj 101 121 expr~ 1-$v1;
#X obj 126 215 outlet~;
#X text 342 227 .mmb;
#X connect 0 0 3 0;
#X connect 1 0 4 0;
#X connect 2 0 5 0;
#X connect 3 0 7 0;
#X connect 4 0 7 0;
#X connect 5 0 6 0;
#X connect 5 0 4 1;
#X connect 6 0 3 1;
#X restore 113 687 pd lin-xfade.mmb~;
#X connect 0 0 4 1;
#X connect 0 0 8 0;
#X connect 0 0 29 0;
#X connect 1 0 10 0;
#X connect 2 0 4 0;
#X connect 2 0 15 0;
#X connect 3 0 25 0;
#X connect 4 0 19 1;
#X connect 6 0 30 2;
#X connect 7 0 29 1;
#X connect 8 0 6 0;
#X connect 9 0 12 0;
#X connect 10 0 2 0;
#X connect 11 0 1 0;
#X connect 11 1 9 0;
#X connect 12 0 13 0;
#X connect 12 1 10 1;
#X connect 13 0 10 1;
#X connect 14 0 9 0;
#X connect 15 0 16 0;
#X connect 16 0 18 0;
#X connect 18 0 17 0;
#X connect 19 0 30 1;
#X connect 20 0 21 0;
#X connect 21 0 23 0;
#X connect 22 0 20 0;
#X connect 23 0 24 0;
#X connect 24 0 30 0;
#X connect 25 0 11 0;
#X connect 26 0 27 0;
#X connect 27 0 28 0;
#X connect 28 0 11 0;
#X connect 29 0 19 0;
#X connect 29 0 22 0;
#X connect 30 0 5 0;
#X restore 73 283 pd bl-tri.mmb~;
#X connect 0 0 9 1;
#X connect 1 0 0 1;
#X connect 2 0 1 0;
#X connect 3 0 2 0;
#X connect 4 0 0 0;
#X connect 5 0 3 0;
#X connect 6 0 10 0;
#X connect 8 0 9 0;
#X connect 9 0 16 0;
#X connect 10 0 8 0;
#X connect 11 0 17 0;
#X connect 12 0 14 0;
#X connect 12 0 13 0;
#X connect 16 0 11 0;
#X connect 17 0 15 0;
#X connect 17 0 7 0;
#X connect 17 0 12 0;
#X restore 31 25 pd benjolinOsc1;
#N canvas 113 221 829 528 comparator 0;
#X obj 102 76 +~;
#X obj 102 157 s~ PWMmix;
#X obj 98 113 expr~ if ($v1 > 0.5 \, 1 \, 0);
#X obj 54 35 r~ triangle1;
#X obj 182 38 r~ triangle2;
#X connect 0 0 2 0;
#X connect 2 0 1 0;
#X connect 3 0 0 0;
#X connect 4 0 0 1;
#X restore 31 67 pd comparator;
#N canvas 411 38 879 694 rungler 0;
#X text 575 550 Sept 2016;
#X text 575 561 macumbista@gmail.com;
#X obj 35 304 samphold~;
#X obj 104 305 samphold~;
#X obj 180 305 samphold~;
#X obj 249 306 samphold~;
#X obj 320 305 samphold~;
#X obj 390 305 samphold~;
#X obj 460 305 samphold~;
#X obj 530 305 samphold~;
#X obj 161 103 clip~ 0 1;
#X text 18 401 3 bit DAC;
#X text 574 536 Derek Holzer;
#X text 617 275 shift register based on 4021 CMOS IC;
#X text 380 580 RUNGLER concept and analog design by Rob Hordijk 2009;
#X obj 88 399 expr~ (($v1/8)+($v2/4)+($v3/2));
#X obj 161 23 r~ oscPulse1;
#X obj 581 21 r~ oscPulse2;
#X obj 88 457 s~ runglerOut;
#X obj 109 251 s~ XORpulse;
#X obj 35 332 s~ st-1-sh;
#X obj 104 332 s~ st-2-sh;
#X obj 180 332 s~ st-3-sh;
#X obj 249 332 s~ st-4-sh;
#X obj 320 332 s~ st-5-sh;
#X obj 390 332 s~ st-6-sh;
#X obj 460 332 s~ st-7-sh;
#X obj 104 279 r~ st-1-sh;
#X obj 180 279 r~ st-2-sh;
#X obj 249 279 r~ st-3-sh;
#X obj 320 279 r~ st-4-sh;
#X obj 390 279 r~ st-5-sh;
#X obj 460 279 r~ st-6-sh;
#X obj 530 279 r~ st-7-sh;
#X obj 173 132 expr~ $v1 < $v2;
#X obj 50 140 expr~ $v1 > $v2;
#X obj 101 191 expr~ $v1 == $v2;
#X obj 105 219 expr~ ($v1*-1)+1;
#X obj 163 62 expr~ $v1 > 0.5;
#X obj 501 172 expr~ $v1 > 0.5;
#X obj 42 550 throw~ scope6;
#X connect 2 0 20 0;
#X connect 3 0 21 0;
#X connect 4 0 22 0;
#X connect 5 0 23 0;
#X connect 6 0 24 0;
#X connect 7 0 15 0;
#X connect 7 0 25 0;
#X connect 8 0 15 1;
#X connect 8 0 26 0;
#X connect 9 0 15 2;
#X connect 10 0 34 0;
#X connect 10 0 35 0;
#X connect 15 0 18 0;
#X connect 15 0 40 0;
#X connect 16 0 38 0;
#X connect 17 0 39 0;
#X connect 27 0 3 0;
#X connect 28 0 4 0;
#X connect 29 0 5 0;
#X connect 30 0 6 0;
#X connect 31 0 7 0;
#X connect 32 0 8 0;
#X connect 33 0 9 0;
#X connect 34 0 36 0;
#X connect 35 0 36 0;
#X connect 35 0 9 0;
#X connect 36 0 37 0;
#X connect 37 0 19 0;
#X connect 37 0 2 0;
#X connect 38 0 10 0;
#X connect 39 0 9 1;
#X connect 39 0 8 1;
#X connect 39 0 7 1;
#X connect 39 0 6 1;
#X connect 39 0 5 1;
#X connect 39 0 4 1;
#X connect 39 0 3 1;
#X connect 39 0 2 1;
#X restore 31 87 pd rungler;
#N canvas 21 67 950 650 filter 0;
#X obj 194 367 +~ 100;
#X obj 194 391 dbtorms~;
#X obj 154 256 mtof~;
#X obj 259 104 line~;
#X msg 259 78 \$1 50;
#X obj 353 283 / 127;
#X obj 353 339 line~;
#X msg 353 309 \$1 50;
#X obj 194 339 line~;
#X msg 194 309 \$1 50;
#X obj 194 415 clip~ 0 32;
#X text 448 392 Derek Holzer;
#X text 448 405 Sept 2016;
#X text 448 416 macumbista@gmail.com;
#X obj 342 135 *~;
#X obj 342 51 / 127;
#X obj 342 107 line~;
#X msg 342 77 \$1 50;
#X obj 437 73 *~ 127;
#X obj 142 108 +~;
#X obj 529 136 *~;
#X obj 529 52 / 127;
#X obj 529 108 line~;
#X msg 529 78 \$1 50;
#X obj 617 79 *~ 127;
#X obj 154 202 expr~ $v1+$v2+$v3+$v4;
#X text 446 254 FILRES: -3dB to 30dB;
#X text 448 368 MULTIMODE RESONANT VOLTAGE CONTROLLED FILTER;
#X obj 157 78 *~ 0.5;
#X obj 154 229 clip~ 0 127;
#X text 447 290 FILTYPE: Mode: 0 = lowpass 0.5 = bandpass 1 = highpass;
#X obj 257 25 r filterFreq;
#X obj 342 24 r filterRungle;
#X obj 438 24 r~ runglerOut;
#X obj 619 24 r~ triangle2;
#X obj 391 227 r filterType;
#X obj 339 248 f;
#X msg 342 227 0.5;
#X obj 345 205 loadbang;
#X obj 194 256 r filterRes;
#X obj 157 52 r~ runglerOut;
#X obj 529 25 r filterSweep;
#X obj 142 548 s~ filterOut;
#X obj 142 25 r~ PWMmix;
#X obj 108 588 throw~ scope7;
#X obj 246 146 throw~ scope4;
#X obj 363 157 throw~ scope5;
#N canvas 266 304 450 300 multimode.mmb~ 0;
#X obj 116 91 inlet~ frequency;
#X obj 220 91 inlet~ Q/BW/slope;
#N canvas 743 89 561 411 pack.input 0;
#X obj 88 67 inlet~;
#X obj 178 67 inlet~;
#X obj 178 221 send~ \$0-q;
#X obj 88 194 send~ \$0-frequency;
#X obj 151 306 outlet~;
#X text 196 278 a little order forcing for patching cleanliness;
#X obj 214 104 r \$0-sample.rate;
#X obj 88 134 expr~ 6.28319*$v1/$f2;
#X text 226 135 radian frequency;
#X obj 178 169 max~ 5.96046e-08;
#X obj 398 67 inlet~;
#X obj 398 92 clip~ 0 1;
#X obj 398 146 send~ \$0-mode;
#X connect 0 0 7 0;
#X connect 1 0 9 0;
#X connect 6 0 7 1;
#X connect 7 0 3 0;
#X connect 9 0 2 0;
#X connect 10 0 11 0;
#X connect 11 0 12 0;
#X restore 121 153 pd pack.input;
#N canvas 557 88 883 540 lowpass 0;
#X obj 88 68 inlet~;
#X obj 88 384 outlet~;
#X obj 90 258 /~ 2;
#X obj 142 159 sig~ 1;
#X obj 142 185 -~;
#X obj 90 287 throw~ \$0-b0;
#X obj 175 287 throw~ \$0-b1;
#X obj 113 313 throw~ \$0-b2;
#X obj 157 119 receive~ \$0-cos.omega;
#X obj 344 97 receive~ \$0-mode;
#X obj 90 235 *~;
#X obj 175 237 *~;
#X obj 344 185 cos~;
#X obj 344 128 clip~ 0 0.5;
#X obj 344 154 *~ 0.5;
#X connect 2 0 5 0;
#X connect 2 0 7 0;
#X connect 3 0 4 0;
#X connect 4 0 10 0;
#X connect 4 0 11 0;
#X connect 8 0 4 1;
#X connect 9 0 13 0;
#X connect 10 0 2 0;
#X connect 11 0 6 0;
#X connect 12 0 11 1;
#X connect 12 0 10 1;
#X connect 13 0 14 0;
#X connect 14 0 12 0;
#X restore 121 216 pd lowpass;
#N canvas 502 62 883 540 highpass 0;
#X obj 88 68 inlet~;
#X obj 88 384 outlet~;
#X obj 90 268 /~ 2;
#X obj 90 297 throw~ \$0-b0;
#X obj 175 297 throw~ \$0-b1;
#X obj 113 323 throw~ \$0-b2;
#X obj 142 184 +~ 1;
#X obj 175 266 *~ -1;
#X obj 359 97 receive~ \$0-mode;
#X obj 157 119 receive~ \$0-cos.omega;
#X obj 90 242 *~;
#X obj 175 242 *~;
#X obj 359 129 clip~ 0.5 1;
#X obj 340 160 -~;
#X obj 311 128 sig~ 1;
#X obj 340 204 cos~;
#X obj 340 181 *~ 0.5;
#X connect 2 0 3 0;
#X connect 2 0 5 0;
#X connect 6 0 10 0;
#X connect 6 0 11 0;
#X connect 7 0 4 0;
#X connect 8 0 12 0;
#X connect 9 0 6 0;
#X connect 10 0 2 0;
#X connect 11 0 7 0;
#X connect 12 0 13 1;
#X connect 13 0 16 0;
#X connect 14 0 13 0;
#X connect 15 0 11 1;
#X connect 15 0 10 1;
#X connect 16 0 15 0;
#X restore 121 246 pd highpass;
#N canvas 217 175 883 540 resonant 0;
#X obj 88 68 inlet~;
#X obj 88 384 outlet~;
#X obj 231 44 receive~ \$0-frequency;
#X obj 366 82 receive~ \$0-q;
#X obj 239 287 throw~ \$0-b0;
#X obj 324 287 throw~ \$0-b1;
#X obj 262 343 throw~ \$0-b2;
#X obj 231 94 expr~ sin($v1);
#X obj 262 318 *~ -1;
#X obj 324 256 sig~ 0;
#X text 373 381 constant skirt gain \, peak gain = q;
#X obj 237 174 expr~ $v1/(2*$v2);
#X obj 239 208 *~;
#X obj 239 246 *~;
#X obj 417 114 receive~ \$0-mode;
#X obj 416 147 *~ 0.5;
#X obj 416 167 -~ 0.25;
#X obj 416 189 cos~;
#X connect 2 0 7 0;
#X connect 3 0 11 1;
#X connect 3 0 12 1;
#X connect 7 0 11 0;
#X connect 8 0 6 0;
#X connect 9 0 5 0;
#X connect 11 0 12 0;
#X connect 12 0 13 0;
#X connect 13 0 4 0;
#X connect 13 0 8 0;
#X connect 14 0 15 0;
#X connect 15 0 16 0;
#X connect 16 0 17 0;
#X connect 17 0 13 1;
#X restore 121 276 pd resonant;
#N canvas 0 22 749 338 unpack.coeff 0;
#X obj 58 58 inlet~;
#X obj 92 231 /~;
#X obj 522 102 catch~ \$0-a0;
#X obj 92 279 outlet~;
#X obj 172 231 /~;
#X obj 172 279 outlet~;
#X obj 252 102 catch~ \$0-b0;
#X obj 252 231 /~;
#X obj 252 279 outlet~;
#X obj 332 231 /~;
#X obj 332 279 outlet~;
#X obj 412 231 /~;
#X obj 412 279 outlet~;
#X obj 92 102 catch~ \$0-a1;
#X obj 172 102 catch~ \$0-a2;
#X obj 332 102 catch~ \$0-b1;
#X obj 412 102 catch~ \$0-b2;
#X obj 92 165 *~ -1;
#X obj 172 166 *~ -1;
#X connect 1 0 3 0;
#X connect 2 0 1 1;
#X connect 2 0 4 1;
#X connect 2 0 7 1;
#X connect 2 0 9 1;
#X connect 2 0 11 1;
#X connect 4 0 5 0;
#X connect 6 0 7 0;
#X connect 7 0 8 0;
#X connect 9 0 10 0;
#X connect 11 0 12 0;
#X connect 13 0 17 0;
#X connect 14 0 18 0;
#X connect 15 0 9 0;
#X connect 16 0 11 0;
#X connect 17 0 1 0;
#X connect 18 0 4 0;
#X restore 121 483 pd unpack.coeff;
#X obj 121 523 outlet~ a1;
#X obj 191 523 outlet~ a2;
#X obj 261 523 outlet~ b0;
#X obj 331 523 outlet~ b1;
#X obj 401 523 outlet~ b2;
#N canvas 557 88 883 540 poles 0;
#X obj 88 68 inlet~;
#X obj 88 384 outlet~;
#X obj 157 69 receive~ \$0-frequency;
#X obj 528 74 receive~ \$0-q;
#X obj 399 166 expr~ sin($v1)/(2*$v2);
#X text 538 166 alpha;
#X obj 399 224 +~ 1;
#X obj 479 230 sig~ 1;
#X obj 479 256 -~;
#X obj 324 255 *~ -2;
#X obj 157 119 expr~ cos($v1);
#X obj 324 278 throw~ \$0-a1;
#X obj 399 250 throw~ \$0-a0;
#X obj 479 283 throw~ \$0-a2;
#X obj 142 215 send~ \$0-cos.omega;
#X connect 2 0 4 0;
#X connect 2 0 10 0;
#X connect 3 0 4 1;
#X connect 4 0 6 0;
#X connect 4 0 8 1;
#X connect 6 0 12 0;
#X connect 7 0 8 0;
#X connect 8 0 13 0;
#X connect 9 0 11 0;
#X connect 10 0 9 0;
#X connect 10 0 14 0;
#X restore 121 176 pd poles;
#X obj 340 91 inlet~ mode;
#X obj 470 196 loadbang;
#X obj 470 224 samplerate~;
#X obj 470 247 s \$0-sample.rate;
#X connect 0 0 2 0;
#X connect 1 0 2 1;
#X connect 2 0 12 0;
#X connect 3 0 4 0;
#X connect 4 0 5 0;
#X connect 5 0 6 0;
#X connect 6 0 7 0;
#X connect 6 1 8 0;
#X connect 6 2 9 0;
#X connect 6 3 10 0;
#X connect 6 4 11 0;
#X connect 12 0 3 0;
#X connect 13 0 2 2;
#X connect 14 0 15 0;
#X connect 15 0 16 0;
#X restore 154 457 pd multimode.mmb~;
#N canvas 329 114 1114 798 biquad.mmb~ 0;
#X obj 154 342 czero~;
#X obj 154 402 czero~;
#X obj 154 457 cpole~;
#X obj 154 517 cpole~;
#X obj 154 35 inlet~ audio;
#X obj 584 35 inlet~ b0;
#X obj 674 35 inlet~ b1;
#X obj 764 35 inlet~ b2;
#X obj 404 35 inlet~ a1;
#X obj 494 35 inlet~ a2;
#N canvas 0 22 450 300 extract.gain 0;
#X obj 92 74 inlet~;
#X obj 92 185 outlet~;
#X obj 212 74 inlet~;
#X obj 352 74 inlet~;
#X obj 212 185 outlet~;
#X obj 352 185 outlet~;
#X obj 212 141 /~;
#X obj 352 141 /~;
#X connect 0 0 1 0;
#X connect 0 0 6 1;
#X connect 0 0 7 1;
#X connect 2 0 6 0;
#X connect 3 0 7 0;
#X connect 6 0 4 0;
#X connect 7 0 5 0;
#X restore 584 154 pd extract.gain;
#N canvas 0 22 668 429 get.zero.locations 0;
#X obj 125 76 inlet~;
#X obj 324 76 inlet~;
#X obj 201 160 expr~ $v1*$v1 - 4*$v2;
#N canvas 109 303 715 527 zero1 0;
#X obj 78 86 inlet~;
#X obj 243 86 inlet~;
#X obj 180 140 expr~ sqrt(($v1>=0)*$v1);
#X obj 78 420 outlet~;
#X obj 171 420 outlet~;
#X obj 168 323 sig~ 2;
#X text 310 185 if sqrt(b^2-4ac) is less than 0 \, make it the imaginary part of the numerator. Else \, add it to the real part (imaginary stays zero).;
#X text 226 273 -b + ...;
#X obj 356 140 expr~ sqrt(($v1<0)*abs($v1));
#N canvas 121 159 450 300 complex_add.mmb~ 0;
#X obj 42 41 inlet~;
#X obj 122 41 inlet~;
#X obj 242 41 inlet~;
#X obj 322 41 inlet~;
#X obj 130 154 +~;
#X obj 250 154 +~;
#X obj 130 197 outlet~;
#X obj 250 197 outlet~;
#X connect 0 0 4 0;
#X connect 1 0 5 0;
#X connect 2 0 4 1;
#X connect 3 0 5 1;
#X connect 4 0 6 0;
#X connect 5 0 7 0;
#X restore 78 273 pd complex_add.mmb~;
#N canvas 150 188 644 457 complex_div.mmb~ 0;
#X obj 142 65 inlet~;
#X obj 193 65 inlet~;
#X obj 342 65 inlet~;
#X obj 393 65 inlet~;
#X obj 250 332 outlet~;
#X obj 301 332 outlet~;
#X text 430 284 .mmb;
#X obj 250 286 /~;
#X obj 301 286 /~;
#X obj 394 184 *~;
#X obj 434 184 *~;
#X obj 405 223 +~;
#X obj 165 182 *~;
#X obj 205 182 *~;
#X obj 180 212 +~;
#X obj 285 182 *~;
#X obj 325 182 *~;
#X obj 300 212 -~;
#X connect 0 0 12 0;
#X connect 0 0 16 0;
#X connect 1 0 13 0;
#X connect 1 0 15 0;
#X connect 2 0 9 0;
#X connect 2 0 9 1;
#X connect 2 0 12 1;
#X connect 2 0 15 1;
#X connect 3 0 10 0;
#X connect 3 0 10 1;
#X connect 3 0 13 1;
#X connect 3 0 16 1;
#X connect 7 0 4 0;
#X connect 8 0 5 0;
#X connect 9 0 11 0;
#X connect 10 0 11 1;
#X connect 11 0 8 1;
#X connect 11 0 7 1;
#X connect 12 0 14 0;
#X connect 13 0 14 1;
#X connect 14 0 7 0;
#X connect 15 0 17 0;
#X connect 16 0 17 1;
#X connect 17 0 8 0;
#X restore 78 366 pd complex_div.mmb~;
#X connect 0 0 9 0;
#X connect 1 0 2 0;
#X connect 1 0 8 0;
#X connect 2 0 9 2;
#X connect 5 0 10 2;
#X connect 8 0 9 3;
#X connect 9 0 10 0;
#X connect 9 1 10 1;
#X connect 10 0 3 0;
#X connect 10 1 4 0;
#X restore 125 242 pd zero1;
#N canvas 797 146 715 527 zero2 0;
#X obj 78 86 inlet~;
#X obj 243 86 inlet~;
#X obj 356 140 expr~ sqrt(($v1<0)*abs($v1 ));
#X obj 180 140 expr~ sqrt(($v1>=0)*$v1);
#X obj 78 420 outlet~;
#X obj 171 420 outlet~;
#X obj 168 323 sig~ 2;
#X text 310 185 if sqrt(b^2-4ac) is less than 0 \, make it the imaginary part of the numerator. Else \, add it to the real part (imaginary stays zero).;
#X text 226 273 -b - ...;
#N canvas 63 101 450 300 complex_sub.mmb~ 0;
#X obj 42 41 inlet~;
#X obj 122 41 inlet~;
#X obj 242 41 inlet~;
#X obj 322 41 inlet~;
#X obj 130 197 outlet~;
#X obj 250 197 outlet~;
#X obj 130 154 -~;
#X obj 250 154 -~;
#X connect 0 0 6 0;
#X connect 1 0 7 0;
#X connect 2 0 6 1;
#X connect 3 0 7 1;
#X connect 6 0 4 0;
#X connect 7 0 5 0;
#X restore 78 273 pd complex_sub.mmb~;
#N canvas 92 130 563 400 complex_div.mmb~ 0;
#X obj 142 65 inlet~;
#X obj 193 65 inlet~;
#X obj 342 65 inlet~;
#X obj 393 65 inlet~;
#X obj 250 332 outlet~;
#X obj 301 332 outlet~;
#X text 430 284 .mmb;
#X obj 250 286 /~;
#X obj 301 286 /~;
#X obj 394 184 *~;
#X obj 434 184 *~;
#X obj 405 223 +~;
#X obj 165 182 *~;
#X obj 205 182 *~;
#X obj 180 212 +~;
#X obj 285 182 *~;
#X obj 325 182 *~;
#X obj 300 212 -~;
#X connect 0 0 12 0;
#X connect 0 0 16 0;
#X connect 1 0 13 0;
#X connect 1 0 15 0;
#X connect 2 0 9 0;
#X connect 2 0 9 1;
#X connect 2 0 12 1;
#X connect 2 0 15 1;
#X connect 3 0 10 0;
#X connect 3 0 10 1;
#X connect 3 0 13 1;
#X connect 3 0 16 1;
#X connect 7 0 4 0;
#X connect 8 0 5 0;
#X connect 9 0 11 0;
#X connect 10 0 11 1;
#X connect 11 0 8 1;
#X connect 11 0 7 1;
#X connect 12 0 14 0;
#X connect 13 0 14 1;
#X connect 14 0 7 0;
#X connect 15 0 17 0;
#X connect 16 0 17 1;
#X connect 17 0 8 0;
#X restore 78 366 pd complex_div.mmb~;
#X connect 0 0 9 0;
#X connect 1 0 3 0;
#X connect 1 0 2 0;
#X connect 2 0 9 3;
#X connect 3 0 9 2;
#X connect 6 0 10 2;
#X connect 9 0 10 0;
#X connect 9 1 10 1;
#X connect 10 0 4 0;
#X connect 10 1 5 0;
#X restore 197 243 pd zero2;
#X obj 121 336 outlet~;
#X obj 181 336 outlet~;
#X obj 241 336 outlet~;
#X obj 301 336 outlet~;
#X obj 125 159 *~ -1;
#X text 416 207 ---------------------;
#X text 461 218 2a;
#X text 370 193 roots = -b +/- sqrt(b^2 - 4ac);
#X text 305 244 Note: becase b0 is extracted from coefficents \, a in the quadratic will always be 1;
#X connect 0 0 2 0;
#X connect 0 0 9 0;
#X connect 1 0 2 1;
#X connect 2 0 3 1;
#X connect 2 0 4 1;
#X connect 3 0 5 0;
#X connect 3 1 6 0;
#X connect 4 0 7 0;
#X connect 4 1 8 0;
#X connect 9 0 3 0;
#X connect 9 0 4 0;
#X restore 605 208 pd get.zero.locations;
#X obj 154 564 outlet~;
#X obj 154 262 *~;
#N canvas 663 40 664 509 get.pole.locations 0;
#X obj 125 76 inlet~;
#X obj 324 76 inlet~;
#X obj 121 336 outlet~;
#X obj 181 336 outlet~;
#X obj 241 336 outlet~;
#X obj 301 336 outlet~;
#N canvas 682 38 715 527 pole1 0;
#X obj 78 86 inlet~;
#X obj 243 86 inlet~;
#X obj 180 140 expr~ sqrt(($v1>=0)*$v1);
#X obj 78 420 outlet~;
#X obj 171 420 outlet~;
#X obj 168 323 sig~ 2;
#X text 310 185 if sqrt(b^2-4ac) is less than 0 \, make it the imaginary part of the numerator. Else \, add it to the real part (imaginary stays zero).;
#X text 226 273 -b + ...;
#X obj 356 140 expr~ sqrt(($v1<0)*abs($v1));
#N canvas 179 217 450 300 complex_div.mmb~ 0;
#X obj 142 65 inlet~;
#X obj 193 65 inlet~;
#X obj 342 65 inlet~;
#X obj 393 65 inlet~;
#X obj 250 332 outlet~;
#X obj 301 332 outlet~;
#X text 430 284 .mmb;
#X obj 250 286 /~;
#X obj 301 286 /~;
#X obj 394 184 *~;
#X obj 434 184 *~;
#X obj 405 223 +~;
#X obj 165 182 *~;
#X obj 205 182 *~;
#X obj 180 212 +~;
#X obj 285 182 *~;
#X obj 325 182 *~;
#X obj 300 212 -~;
#X connect 0 0 12 0;
#X connect 0 0 16 0;
#X connect 1 0 13 0;
#X connect 1 0 15 0;
#X connect 2 0 9 0;
#X connect 2 0 9 1;
#X connect 2 0 12 1;
#X connect 2 0 15 1;
#X connect 3 0 10 0;
#X connect 3 0 10 1;
#X connect 3 0 13 1;
#X connect 3 0 16 1;
#X connect 7 0 4 0;
#X connect 8 0 5 0;
#X connect 9 0 11 0;
#X connect 10 0 11 1;
#X connect 11 0 8 1;
#X connect 11 0 7 1;
#X connect 12 0 14 0;
#X connect 13 0 14 1;
#X connect 14 0 7 0;
#X connect 15 0 17 0;
#X connect 16 0 17 1;
#X connect 17 0 8 0;
#X restore 78 366 pd complex_div.mmb~;
#N canvas 208 246 450 300 complex_add.mmb~ 0;
#X obj 42 41 inlet~;
#X obj 122 41 inlet~;
#X obj 242 41 inlet~;
#X obj 322 41 inlet~;
#X obj 130 154 +~;
#X obj 250 154 +~;
#X obj 130 197 outlet~;
#X obj 250 197 outlet~;
#X connect 0 0 4 0;
#X connect 1 0 5 0;
#X connect 2 0 4 1;
#X connect 3 0 5 1;
#X connect 4 0 6 0;
#X connect 5 0 7 0;
#X restore 78 273 pd complex_add.mmb~;
#X connect 0 0 10 0;
#X connect 1 0 2 0;
#X connect 1 0 8 0;
#X connect 2 0 10 2;
#X connect 5 0 9 2;
#X connect 8 0 10 3;
#X connect 9 0 3 0;
#X connect 9 1 4 0;
#X connect 10 0 9 0;
#X connect 10 1 9 1;
#X restore 125 242 pd pole1;
#N canvas 912 149 715 527 pole2 0;
#X obj 78 86 inlet~;
#X obj 243 86 inlet~;
#X obj 356 140 expr~ sqrt(($v1<0)*abs($v1 ));
#X obj 180 140 expr~ sqrt(($v1>=0)*$v1);
#X obj 78 420 outlet~;
#X obj 171 420 outlet~;
#X obj 168 323 sig~ 2;
#X text 310 185 if sqrt(b^2-4ac) is less than 0 \, make it the imaginary part of the numerator. Else \, add it to the real part (imaginary stays zero).;
#X text 226 273 -b - ...;
#N canvas 237 275 450 300 complex_div.mmb~ 0;
#X obj 142 65 inlet~;
#X obj 193 65 inlet~;
#X obj 342 65 inlet~;
#X obj 393 65 inlet~;
#X obj 250 332 outlet~;
#X obj 301 332 outlet~;
#X text 430 284 .mmb;
#X obj 250 286 /~;
#X obj 301 286 /~;
#X obj 394 184 *~;
#X obj 434 184 *~;
#X obj 405 223 +~;
#X obj 165 182 *~;
#X obj 205 182 *~;
#X obj 180 212 +~;
#X obj 285 182 *~;
#X obj 325 182 *~;
#X obj 300 212 -~;
#X connect 0 0 12 0;
#X connect 0 0 16 0;
#X connect 1 0 13 0;
#X connect 1 0 15 0;
#X connect 2 0 9 0;
#X connect 2 0 9 1;
#X connect 2 0 12 1;
#X connect 2 0 15 1;
#X connect 3 0 10 0;
#X connect 3 0 10 1;
#X connect 3 0 13 1;
#X connect 3 0 16 1;
#X connect 7 0 4 0;
#X connect 8 0 5 0;
#X connect 9 0 11 0;
#X connect 10 0 11 1;
#X connect 11 0 8 1;
#X connect 11 0 7 1;
#X connect 12 0 14 0;
#X connect 13 0 14 1;
#X connect 14 0 7 0;
#X connect 15 0 17 0;
#X connect 16 0 17 1;
#X connect 17 0 8 0;
#X restore 78 366 pd complex_div.mmb~;
#N canvas 380 398 450 300 complex_sub.mmb~ 0;
#X obj 42 41 inlet~;
#X obj 122 41 inlet~;
#X obj 242 41 inlet~;
#X obj 322 41 inlet~;
#X obj 130 197 outlet~;
#X obj 250 197 outlet~;
#X obj 130 154 -~;
#X obj 250 154 -~;
#X connect 0 0 6 0;
#X connect 1 0 7 0;
#X connect 2 0 6 1;
#X connect 3 0 7 1;
#X connect 6 0 4 0;
#X connect 7 0 5 0;
#X restore 78 273 pd complex_sub.mmb~;
#X connect 0 0 10 0;
#X connect 1 0 3 0;
#X connect 1 0 2 0;
#X connect 2 0 10 3;
#X connect 3 0 10 2;
#X connect 6 0 9 2;
#X connect 9 0 4 0;
#X connect 9 1 5 0;
#X connect 10 0 9 0;
#X connect 10 1 9 1;
#X restore 197 243 pd pole2;
#X obj 125 159 *~ 1;
#X obj 201 160 expr~ $v1*$v1 + 4*$v2;
#X text 395 225 ---------------------;
#X text 440 236 2a;
#X text 349 211 roots = -b +/- sqrt(b^2 - 4ac);
#X text 285 253 Note: since a0 is assumed to be 1 \, a in the quadratic will always be 1;
#X text 344 160 < - because it should be -a1 and -a2;
#X connect 0 0 8 0;
#X connect 0 0 9 0;
#X connect 1 0 9 1;
#X connect 6 0 2 0;
#X connect 6 1 3 0;
#X connect 7 0 4 0;
#X connect 7 1 5 0;
#X connect 8 0 6 0;
#X connect 8 0 7 0;
#X connect 9 0 6 1;
#X connect 9 0 7 1;
#X restore 462 377 pd get.pole.locations;
#X text 900 166 y[n] = b0*x[n] + b1*x[n-1] + b2*x[n-2];
#X text 943 183 - a1*y[n-1] - a2*y[n-2];
#X text 843 138 Difference Equation:;
#X text 852 244 z-Transform:;
#X text 901 271 H(z) = b0 + b1*z^-1 + b2*z^-2;
#X text 943 280 ----------------------;
#X text 947 291 1 + a1*z^-1 + a2*z^-2;
#X text 967 560 .mmb;
#X connect 0 0 1 0;
#X connect 0 1 1 1;
#X connect 1 0 2 0;
#X connect 1 1 2 1;
#X connect 2 0 3 0;
#X connect 2 1 3 1;
#X connect 3 0 12 0;
#X connect 4 0 13 0;
#X connect 5 0 10 0;
#X connect 6 0 10 1;
#X connect 7 0 10 2;
#X connect 8 0 14 0;
#X connect 9 0 14 1;
#X connect 10 0 13 1;
#X connect 10 1 11 0;
#X connect 10 2 11 1;
#X connect 11 0 0 2;
#X connect 11 1 0 3;
#X connect 11 2 1 2;
#X connect 11 3 1 3;
#X connect 13 0 0 0;
#X connect 14 0 2 2;
#X connect 14 1 2 3;
#X connect 14 2 3 2;
#X connect 14 3 3 3;
#X restore 142 521 pd biquad.mmb~;
#X connect 0 0 1 0;
#X connect 1 0 10 0;
#X connect 2 0 47 0;
#X connect 3 0 25 0;
#X connect 3 0 45 0;
#X connect 4 0 3 0;
#X connect 5 0 7 0;
#X connect 6 0 47 2;
#X connect 7 0 6 0;
#X connect 8 0 0 0;
#X connect 9 0 8 0;
#X connect 10 0 47 1;
#X connect 14 0 25 2;
#X connect 14 0 46 0;
#X connect 15 0 17 0;
#X connect 16 0 14 0;
#X connect 17 0 16 0;
#X connect 18 0 14 1;
#X connect 19 0 48 0;
#X connect 20 0 25 3;
#X connect 21 0 23 0;
#X connect 22 0 20 0;
#X connect 23 0 22 0;
#X connect 24 0 20 1;
#X connect 25 0 29 0;
#X connect 28 0 19 1;
#X connect 29 0 2 0;
#X connect 31 0 4 0;
#X connect 32 0 15 0;
#X connect 33 0 18 0;
#X connect 34 0 24 0;
#X connect 35 0 5 0;
#X connect 36 0 5 0;
#X connect 37 0 36 0;
#X connect 38 0 37 0;
#X connect 39 0 9 0;
#X connect 40 0 28 0;
#X connect 41 0 21 0;
#X connect 43 0 19 0;
#X connect 47 0 48 1;
#X connect 47 1 48 2;
#X connect 47 2 48 3;
#X connect 47 3 48 4;
#X connect 47 4 48 5;
#X connect 48 0 42 0;
#X connect 48 0 44 0;
#X restore 31 108 pd filter;
#N canvas 0 38 421 477 benjolinOsc2 0;
#X obj 237 180 *~;
#X obj 252 154 line~;
#X obj 252 133 pack 0 50;
#X obj 252 108 / 2;
#X obj 237 56 r~ runglerOut;
#X obj 72 142 line~;
#X obj 73 195 +~;
#X obj 72 119 pack 0 50;
#X obj 73 252 mtof~;
#X obj 73 229 clip~ -60 127;
#X obj 194 314 expr~ if ($v1 > 0.5 \, 1 \, 0);
#X obj 72 63 r oscFreq2;
#X obj 252 81 r oscRungle2;
#X obj 228 354 s~ oscPulse2;
#X obj 192 381 throw~ scope3;
#X obj 85 329 throw~ scope2;
#X obj 69 362 s~ triangle2;
#N canvas 431 133 935 754 bl-tri.mmb~ 0;
#X obj 104 68 inlet~;
#X obj 395 95 samplerate~;
#X obj 395 152 / 2;
#X obj 395 10 loadbang;
#X obj 381 202 /~;
#X obj 114 728 outlet~;
#X obj 259 652 /~ 1;
#X obj 235 69 inlet;
#X obj 259 628 -~ 30;
#X obj 489 84 v \$1-bl-maxsamprate.mmb;
#X obj 395 125 min 44100;
#X obj 395 62 t b b;
#X obj 489 111 sel 0;
#X msg 489 135 44100;
#X obj 489 51 r \$1-bl-getmaxsamprate.mmb;
#X obj 430 199 / 30;
#X obj 430 224 int;
#X obj 430 269 s \$0-maxharmonics;
#X obj 430 246 - 1;
#N canvas 87 170 818 674 triangle 0;
#X obj 467 317 expr~ if($v1<1 \, $v1 \, 2-$v1);
#X obj 404 103 expr~ abs(fmod($v1 \, 2));
#X obj 100 307 *~ 1027;
#X obj 100 330 +~ 1;
#X obj 100 245 -~;
#X obj 100 280 clip~ 0 1;
#X obj 176 112 expr~ int($v1);
#X obj 282 307 *~ 1027;
#X obj 282 330 +~ 1;
#X obj 282 245 -~;
#X obj 282 280 clip~ 0 1;
#X obj 80 111 *~ 1024;
#X obj 80 356 +~;
#X obj 262 356 +~;
#X obj 80 46 inlet~;
#X text 95 64 phasor;
#X obj 290 46 inlet~;
#X text 338 52 number of harmonics;
#X obj 207 462 outlet~;
#X text 543 340 ping pong crossfader;
#X text 439 383 evens;
#X text 41 382 odds;
#X text 447 162 <-- these guys make sure that one tabread is using on less harmonic than the other. If int(harmonics) is even \, then odds has on less harmonic \, and vise versa. They switch when the crossfader brings them to silence.;
#X obj 163 243 r \$0-maxharmonics;
#X obj 339 161 expr~ $v1<1;
#X obj 340 200 expr~ $v1>1;
#X obj 80 383 tabread4~ \$1-bl-tritable.mmb;
#X obj 262 384 tabread4~ \$1-bl-tritable.mmb;
#N canvas 411 449 450 300 lin-xfade.mmb~ 0;
#X obj 60 50 inlet~;
#X obj 170 50 inlet~;
#X obj 280 50 inlet~;
#X obj 76 165 *~;
#X obj 164 164 *~;
#X obj 274 89 clip~ 0 1;
#X obj 101 121 expr~ 1-$v1;
#X obj 126 215 outlet~;
#X text 342 227 .mmb;
#X connect 0 0 3 0;
#X connect 1 0 4 0;
#X connect 2 0 5 0;
#X connect 3 0 7 0;
#X connect 4 0 7 0;
#X connect 5 0 6 0;
#X connect 5 0 4 1;
#X connect 6 0 3 1;
#X restore 207 424 pd lin-xfade.mmb~;
#X connect 0 0 28 2;
#X connect 1 0 0 0;
#X connect 1 0 24 0;
#X connect 1 0 25 0;
#X connect 2 0 3 0;
#X connect 3 0 12 1;
#X connect 4 0 5 0;
#X connect 5 0 2 0;
#X connect 6 0 4 0;
#X connect 6 0 9 0;
#X connect 7 0 8 0;
#X connect 8 0 13 1;
#X connect 9 0 10 0;
#X connect 10 0 7 0;
#X connect 11 0 12 0;
#X connect 11 0 13 0;
#X connect 12 0 26 0;
#X connect 13 0 27 0;
#X connect 14 0 11 0;
#X connect 16 0 6 0;
#X connect 16 0 1 0;
#X connect 23 0 5 2;
#X connect 23 0 10 2;
#X connect 24 0 4 1;
#X connect 25 0 9 1;
#X connect 26 0 28 0;
#X connect 27 0 28 1;
#X connect 28 0 18 0;
#X restore 175 299 pd triangle;
#X obj 81 528 wrap~ 0.5;
#X obj 81 552 expr~ if($v1>.5 \, 1-$v1 \, $v1);
#X obj 81 487 +~ 1.25;
#X obj 80 578 *~ 4;
#X obj 80 600 -~ 1;
#X obj 395 32 t b b;
#X obj 321 18 r pd;
#X obj 321 40 route dsp;
#X obj 321 62 sel 1;
#N canvas 324 362 450 300 vphasor.mmb~ 0;
#X obj 91 291 samphold~;
#X obj 76 320 -~;
#X obj 185 54 inlet;
#X obj 76 434 wrap~;
#X obj 259 144 samplerate~;
#X obj 259 175 expr 1/($f1/1000);
#X obj 244 205 f;
#X obj 244 251 vline~;
#X obj 174 328 vline~;
#X msg 174 298 \$1;
#X obj 76 363 +~;
#X obj 259 115 loadbang;
#X obj 76 467 outlet~;
#X msg 244 228 -1 0 0 \, 0 0 \$1;
#X text 287 250 one-sample pulse;
#X text 279 437 .mmb;
#X obj 185 169 t f b;
#X obj 76 54 inlet~;
#N canvas 208 79 474 300 argument 0;
#X obj 42 40 inlet~;
#X obj 134 162 samphold~;
#X obj 186 132 expr~ $v1==0;
#X obj 133 63 sig~ \$1;
#X obj 133 133 *~ -1;
#X obj 134 185 +~ \$1;
#X obj 43 221 +~;
#X obj 43 251 outlet~;
#X obj 187 111 *~;
#X obj 254 42 inlet;
#X msg 254 64 0 0 0 \, 1 0 \$1;
#X obj 254 85 vline~;
#X text 212 108 in case signal is already present on load.;
#X connect 0 0 6 0;
#X connect 0 0 8 0;
#X connect 1 0 5 0;
#X connect 2 0 1 1;
#X connect 3 0 4 0;
#X connect 4 0 1 0;
#X connect 5 0 6 1;
#X connect 6 0 7 0;
#X connect 8 0 2 0;
#X connect 9 0 10 0;
#X connect 10 0 11 0;
#X connect 11 0 8 1;
#X restore 76 107 pd argument;
#X obj 76 192 phasor~;
#X obj 185 82 wrap;
#X obj 179 237 + 2;
#X connect 0 0 1 1;
#X connect 1 0 10 0;
#X connect 2 0 20 0;
#X connect 3 0 12 0;
#X connect 4 0 5 0;
#X connect 5 0 6 1;
#X connect 5 0 18 1;
#X connect 6 0 13 0;
#X connect 7 0 0 1;
#X connect 8 0 10 1;
#X connect 9 0 8 0;
#X connect 10 0 3 0;
#X connect 11 0 4 0;
#X connect 13 0 7 0;
#X connect 16 0 21 0;
#X connect 16 1 6 0;
#X connect 17 0 18 0;
#X connect 18 0 19 0;
#X connect 19 0 1 0;
#X connect 19 0 0 0;
#X connect 20 0 16 0;
#X connect 21 0 9 0;
#X restore 163 194 pd vphasor.mmb~;
#N canvas 382 420 450 300 lin-xfade.mmb~ 0;
#X obj 60 50 inlet~;
#X obj 170 50 inlet~;
#X obj 280 50 inlet~;
#X obj 76 165 *~;
#X obj 164 164 *~;
#X obj 274 89 clip~ 0 1;
#X obj 101 121 expr~ 1-$v1;
#X obj 126 215 outlet~;
#X text 342 227 .mmb;
#X connect 0 0 3 0;
#X connect 1 0 4 0;
#X connect 2 0 5 0;
#X connect 3 0 7 0;
#X connect 4 0 7 0;
#X connect 5 0 6 0;
#X connect 5 0 4 1;
#X connect 6 0 3 1;
#X restore 113 687 pd lin-xfade.mmb~;
#X connect 0 0 4 1;
#X connect 0 0 8 0;
#X connect 0 0 29 0;
#X connect 1 0 10 0;
#X connect 2 0 4 0;
#X connect 2 0 15 0;
#X connect 3 0 25 0;
#X connect 4 0 19 1;
#X connect 6 0 30 2;
#X connect 7 0 29 1;
#X connect 8 0 6 0;
#X connect 9 0 12 0;
#X connect 10 0 2 0;
#X connect 11 0 1 0;
#X connect 11 1 9 0;
#X connect 12 0 13 0;
#X connect 12 1 10 1;
#X connect 13 0 10 1;
#X connect 14 0 9 0;
#X connect 15 0 16 0;
#X connect 16 0 18 0;
#X connect 18 0 17 0;
#X connect 19 0 30 1;
#X connect 20 0 21 0;
#X connect 21 0 23 0;
#X connect 22 0 20 0;
#X connect 23 0 24 0;
#X connect 24 0 30 0;
#X connect 25 0 11 0;
#X connect 26 0 27 0;
#X connect 27 0 28 0;
#X connect 28 0 11 0;
#X connect 29 0 19 0;
#X connect 29 0 22 0;
#X connect 30 0 5 0;
#X restore 71 281 pd bl-tri.mmb~;
#X connect 0 0 6 1;
#X connect 1 0 0 1;
#X connect 2 0 1 0;
#X connect 3 0 2 0;
#X connect 4 0 0 0;
#X connect 5 0 6 0;
#X connect 6 0 9 0;
#X connect 7 0 5 0;
#X connect 8 0 17 0;
#X connect 9 0 8 0;
#X connect 10 0 13 0;
#X connect 10 0 14 0;
#X connect 11 0 7 0;
#X connect 12 0 3 0;
#X connect 17 0 15 0;
#X connect 17 0 16 0;
#X connect 17 0 10 0;
#X restore 31 46 pd benjolinOsc2;
#N canvas 50 81 848 555 outputStage 0;
#X obj 135 30 r~ triangle2;
#X obj 252 30 r~ oscPulse1;
#X obj 338 31 r~ oscPulse2;
#X obj 424 31 r~ PWMmix;
#X obj 491 32 r~ runglerOut;
#X obj 587 33 r~ filterOut;
#X obj 50 29 r~ triangle1;
#X obj 47 64 r~ XORpulse;
#X obj 559 167 clip~ -1 1;
#X obj 570 84 hip~ 1;
#X obj 490 127 r onLoad;
#X msg 490 148 1 500;
#X obj 490 169 vline~;
#X obj 421 128 r onExit;
#X msg 420 149 0 500;
#X obj 504 387 *~;
#X obj 493 463 dac~;
#X obj 496 424 *~ 0.5;
#X obj 515 198 r masterVolume;
#X obj 493 348 *~;
#X obj 575 341 *~;
#X obj 513 240 pack f 300;
#X obj 514 267 line;
#X obj 583 234 pack f 300;
#X obj 584 261 line;
#X floatatom 498 287 5 0 0 0 - - - 0;
#X connect 5 0 9 0;
#X connect 8 0 20 0;
#X connect 9 0 8 0;
#X connect 10 0 11 0;
#X connect 11 0 12 0;
#X connect 12 0 19 0;
#X connect 13 0 14 0;
#X connect 14 0 12 0;
#X connect 15 0 17 0;
#X connect 17 0 16 0;
#X connect 17 0 16 1;
#X connect 18 0 21 0;
#X connect 18 0 23 0;
#X connect 19 0 15 0;
#X connect 20 0 15 1;
#X connect 21 0 22 0;
#X connect 22 0 19 1;
#X connect 23 0 24 0;
#X connect 24 0 20 1;
#X connect 25 0 19 1;
#X connect 25 0 20 1;
#X restore 32 148 pd outputStage;
#N canvas 49 106 1295 691 scopes 0;
#X obj 48 73 clip~ -1 1;
#X obj 80 102 loadbang;
#X obj 85 152 metro 100;
#X text 84 124 1;
#X msg 84 124 1;
#X obj 53 296 clip~ -1 1;
#X obj 85 325 loadbang;
#X obj 90 375 metro 100;
#X text 89 347 1;
#X msg 89 347 1;
#X obj 56 522 clip~ -1 1;
#X obj 88 551 loadbang;
#X obj 93 601 metro 100;
#X text 92 573 1;
#X msg 92 573 1;
#X obj 426 68 clip~ -1 1;
#X obj 458 97 loadbang;
#X obj 463 147 metro 100;
#X text 462 119 1;
#X msg 462 119 1;
#X obj 432 298 clip~ -1 1;
#X obj 464 327 loadbang;
#X obj 469 377 metro 100;
#X text 468 349 1;
#X msg 468 349 1;
#X obj 437 521 clip~ -1 1;
#X obj 469 550 loadbang;
#X obj 474 600 metro 100;
#X text 473 572 1;
#X msg 473 572 1;
#X obj 26 13 catch~ scope0;
#X obj 31 236 catch~ scope1;
#X obj 34 462 catch~ scope2;
#X obj 404 8 catch~ scope3;
#X obj 410 238 catch~ scope4;
#X obj 415 461 catch~ scope5;
#X obj 54 625 tabwrite~ scope2;
#X obj 424 171 tabwrite~ scope3;
#X obj 430 401 tabwrite~ scope4;
#X obj 435 624 tabwrite~ scope5;
#X obj 46 176 tabwrite~ scope0;
#X obj 51 399 tabwrite~ scope1;
#X obj 808 64 clip~ -1 1;
#X obj 840 93 loadbang;
#X obj 845 143 metro 100;
#X text 844 115 1;
#X msg 844 115 1;
#X obj 786 4 catch~ scope6;
#X obj 806 167 tabwrite~ scope6;
#X obj 809 290 clip~ -1 1;
#X obj 841 319 loadbang;
#X obj 846 369 metro 100;
#X text 845 341 1;
#X msg 845 341 1;
#X obj 787 230 catch~ scope7;
#X obj 807 393 tabwrite~ scope7;
#X obj 810 527 clip~ -1 1;
#X obj 842 556 loadbang;
#X obj 847 606 metro 100;
#X text 846 578 1;
#X msg 846 578 1;
#X obj 788 467 catch~ previewScope;
#X obj 786 635 tabwrite~ previewScope;
#X obj 199 68 table scope0;
#X obj 193 234 table scope1;
#X obj 185 458 table scope2;
#X obj 577 57 table scope3;
#X obj 571 223 table scope4;
#X obj 563 447 table scope5;
#X obj 971 60 table scope6;
#X obj 965 226 table scope7;
#X obj 957 450 table previewScope;
#X connect 0 0 40 0;
#X connect 1 0 4 0;
#X connect 2 0 40 0;
#X connect 4 0 2 0;
#X connect 5 0 41 0;
#X connect 6 0 9 0;
#X connect 7 0 41 0;
#X connect 9 0 7 0;
#X connect 10 0 36 0;
#X connect 11 0 14 0;
#X connect 12 0 36 0;
#X connect 14 0 12 0;
#X connect 15 0 37 0;
#X connect 16 0 19 0;
#X connect 17 0 37 0;
#X connect 19 0 17 0;
#X connect 20 0 38 0;
#X connect 21 0 24 0;
#X connect 22 0 38 0;
#X connect 24 0 22 0;
#X connect 25 0 39 0;
#X connect 26 0 29 0;
#X connect 27 0 39 0;
#X connect 29 0 27 0;
#X connect 30 0 0 0;
#X connect 31 0 5 0;
#X connect 32 0 10 0;
#X connect 33 0 15 0;
#X connect 34 0 20 0;
#X connect 35 0 25 0;
#X connect 42 0 48 0;
#X connect 43 0 46 0;
#X connect 44 0 48 0;
#X connect 46 0 44 0;
#X connect 47 0 42 0;
#X connect 49 0 55 0;
#X connect 50 0 53 0;
#X connect 51 0 55 0;
#X connect 53 0 51 0;
#X connect 54 0 49 0;
#X connect 56 0 62 0;
#X connect 57 0 60 0;
#X connect 58 0 62 0;
#X connect 60 0 58 0;
#X connect 61 0 56 0;
#X restore 31 128 pd scopes;
#X obj 212 93 s oscFreq1;
#X obj 217 71 hsl 128 15 -60 80 0 0 empty empty empty -2 -8 0 10 #fcfcfc #000000 #000000 0 1;
#X obj 214 164 hsl 128 15 -60 80 0 0 empty empty empty -2 -8 0 10 #fcfcfc #000000 #000000 0 1;
#X obj 211 186 s oscFreq2;
#X obj 403 71 hsl 128 15 0 127 0 0 empty empty empty -2 -8 0 10 #fcfcfc #000000 #000000 0 1;
#X obj 402 164 hsl 128 15 0 127 0 0 empty empty empty -2 -8 0 10 #fcfcfc #000000 #000000 0 1;
#X obj 400 93 s oscRungle1;
#X obj 399 186 s oscRungle2;
#X obj 215 264 hsl 128 15 50 127 0 0 empty empty empty -2 -8 0 10 #fcfcfc #000000 #000000 0 1;
#X obj 402 263 hsl 128 15 0 127 0 0 empty empty empty -2 -8 0 10 #fcfcfc #000000 #000000 0 1;
#X obj 214 366 hsl 128 15 0 127 0 0 empty empty empty -2 -8 0 10 #fcfcfc #000000 #000000 0 1;
#X obj 402 367 hsl 128 15 -3 30 0 0 empty empty empty -2 -8 0 10 #fcfcfc #000000 #000000 0 1;
#X obj 212 286 s filterFreq;
#X obj 211 388 s filterRungle;
#X obj 399 285 s filterSweep;
#X obj 399 389 s filterRes;
#X floatatom 176 94 5 0 0 0 - - - 0;
#X floatatom 174 186 5 0 0 0 - - - 0;
#X floatatom 365 93 5 0 0 0 - - - 0;
#X floatatom 361 187 5 0 0 0 - - - 0;
#X floatatom 175 389 5 0 0 0 - - - 0;
#X floatatom 362 388 5 0 0 0 - - - 0;
#X floatatom 176 288 5 0 0 0 - - - 0;
#X floatatom 362 285 5 0 0 0 - - - 0;
#X obj 37 398 loadbang;
#X obj 214 21 r control0;
#X obj 400 21 r control1;
#X obj 212 117 r control2;
#X obj 401 116 r control3;
#X obj 213 214 r control4;
#X obj 400 221 r control5;
#X obj 211 311 r control6;
#X obj 400 311 r control7;
#X obj 400 45 * 127;
#X obj 400 140 * 127;
#X obj 401 242 * 127;
#X obj 211 334 * 127;
#X obj 213 235 * 77;
#X obj 251 236 + 50;
#X obj 441 44 abs;
#X obj 442 141 abs;
#X obj 176 240 abs;
#X obj 441 242 abs;
#X obj 252 334 abs;
#X obj 54 423 s onLoad;
#X obj 30 333 bng 15 250 50 0 empty empty empty 17 7 0 10 #fcfcfc #000000 #000000;
#X obj 30 359 s onExit;
#X obj 16 397 bng 15 250 50 0 empty empty empty 17 7 0 10 #fcfcfc #000000 #000000;
#X obj 440 346 -3;
#X obj 400 336 * 33;
#X obj 215 45 * 140;
#X obj 259 44 abs;
#X obj 213 143 * 140;
#X obj 255 139 abs;
#X obj 285 141 - 60;
#X obj 289 45 - 60;
#X msg 42 455 \; oscFreq1 0 \; oscFreq2 0 \; oscRungle1 0 \; oscRungle2 0 \; filterFreq 0 \; filterSweep 0 \; filterRungle 0 \; filterRes 0 \; masterVolume 1 \; \;;
#X msg 165 455 \; oscFreq1 100 \; oscFreq2 30 \; oscRungle1 100 \; oscRungle2 80 \; filterFreq 80 \; filterSweep 50 \; filterRungle 30 \; filterRes 75 \; masterVolume 1 \; \;;
#X msg 288 453 \; oscFreq1 40 \; oscFreq2 3 \; oscRungle1 10 \; oscRungle2 10 \; filterFreq 50 \; filterSweep 50 \; filterRungle 30 \; filterRes 127 \; masterVolume 1 \; \;;
#X msg 410 450 \; oscFreq1 80 \; oscFreq2 25 \; oscRungle1 88 \; oscRungle2 68 \; filterFreq 119 \; filterSweep 85 \; filterRungle 13 \; filterRes 72 \; masterVolume 1 \; \;;
#N canvas 382 95 913 750 bl-init.mmb 1;
#X obj 612 567 table \$1-bl-sawtemp.mmb;
#X obj 127 296 / 30;
#X obj 127 321 int;
#X obj 199 370 * 1027;
#X obj 127 271 / 2;
#X msg 199 397 resize \$1;
#X obj 148 496 until;
#X obj 147 553 f 0;
#X obj 176 554 + 1;
#X msg 163 528 0;
#N canvas 788 139 673 731 copy.waveform 1;
#X obj 68 44 inlet;
#X msg 68 183 1027;
#X obj 68 209 until;
#X obj 68 259 f 0;
#X obj 68 154 t b b f;
#X msg 83 239 0;
#X obj 100 260 + 1;
#X obj 242 310 * 1027;
#X obj 227 342 +;
#X obj 68 297 t f f;
#X obj 68 368 tabread \$1-bl-sawtemp.mmb;
#X text 163 116 copy temp waveform and add it to wavetable;
#X obj 68 416 tabwrite \$1-bl-sawtable.mmb;
#X obj 112 490 tabread \$1-bl-parabolatemp.mmb;
#X obj 112 558 tabwrite \$1-bl-parabolatable.mmb;
#X obj 192 609 tabread \$1-bl-tritemp.mmb;
#X obj 192 643 tabwrite \$1-bl-tritable.mmb;
#X connect 0 0 4 0;
#X connect 1 0 2 0;
#X connect 2 0 3 0;
#X connect 3 0 6 0;
#X connect 3 0 9 0;
#X connect 4 0 1 0;
#X connect 4 1 5 0;
#X connect 4 2 7 0;
#X connect 5 0 3 1;
#X connect 6 0 3 1;
#X connect 7 0 8 1;
#X connect 8 0 12 1;
#X connect 8 0 14 1;
#X connect 8 0 16 1;
#X connect 9 0 10 0;
#X connect 9 0 13 0;
#X connect 9 0 15 0;
#X connect 9 1 8 0;
#X connect 10 0 12 0;
#X connect 13 0 14 0;
#X connect 15 0 16 0;
#X restore 146 744 pd copy.waveform;
#X obj 199 425 s \$1-bl-sawtable.mmb;
#X obj 128 447 t b f b f;
#X obj 455 552 print bl-init.mmb;
#X msg 455 514 Creating waveforms. This may take a minute...;
#X obj 127 170 t b b;
#X msg 387 514 Done;
#X obj 127 205 delay 10;
#X msg 127 144 bang;
#X obj 565 183 v \$1-bl-maxsamprate.mmb;
#X obj 127 243 v \$1-bl-maxsamprate.mmb;
#X obj 538 9 loadbang;
#X obj 538 214 s \$1-bl-getmaxsamprate.mmb;
#X msg 538 36 44100;
#X obj 538 161 t b f;
#X obj 231 455 s \$1-bl-parabolatable.mmb;
#N canvas 621 22 701 797 create.parabola 0;
#X obj 105 170 until;
#X obj 105 226 f 1;
#X obj 137 227 + 1;
#X msg 120 204 1;
#X obj 105 142 t f b b;
#X obj 78 110 t b f;
#X obj 105 336 list prepend;
#X obj 186 336 t l;
#X obj 78 366 list;
#X obj 78 413 list trim;
#X obj 51 34 inlet;
#X obj 51 74 sel 0;
#X msg 23 287 const 0;
#X obj 105 278 expr pow(-1 \, $f1)*(4/pow($f1 \, 2));
#X obj 78 391 list prepend cosinesum 1024;
#X obj 78 542 s \$1-bl-parabolatemp.mmb;
#X text 186 85 make temporary parabola table with given number of harmonics;
#X text 192 711 pow(PI \, 2)/3;
#X obj 127 596 until;
#X msg 127 571 1027;
#X obj 127 620 f 0;
#X obj 154 620 + 1;
#X obj 127 647 t f f;
#X obj 127 680 tabread \$1-bl-parabolatemp.mmb;
#X obj 127 748 tabwrite \$1-bl-parabolatemp.mmb;
#X msg 166 596 0;
#X obj 77 435 t b b b a;
#X obj 127 711 + 3.28986;
#X msg 78 509 normalize 1;
#X connect 0 0 1 0;
#X connect 1 0 2 0;
#X connect 1 0 13 0;
#X connect 2 0 1 1;
#X connect 3 0 1 1;
#X connect 4 0 0 0;
#X connect 4 1 3 0;
#X connect 4 2 6 1;
#X connect 5 0 8 0;
#X connect 5 1 4 0;
#X connect 6 0 7 0;
#X connect 6 0 8 1;
#X connect 7 0 6 1;
#X connect 8 0 14 0;
#X connect 9 0 26 0;
#X connect 10 0 11 0;
#X connect 11 0 12 0;
#X connect 11 1 5 0;
#X connect 12 0 15 0;
#X connect 13 0 6 0;
#X connect 14 0 9 0;
#X connect 18 0 20 0;
#X connect 19 0 18 0;
#X connect 20 0 21 0;
#X connect 20 0 22 0;
#X connect 21 0 20 1;
#X connect 22 0 23 0;
#X connect 22 1 24 1;
#X connect 23 0 27 0;
#X connect 25 0 20 1;
#X connect 26 0 28 0;
#X connect 26 1 19 0;
#X connect 26 2 25 0;
#X connect 26 3 15 0;
#X connect 27 0 24 0;
#X connect 28 0 15 0;
#X restore 279 703 pd create.parabola;
#N canvas 554 69 670 669 create.saw 0;
#X obj 105 170 until;
#X obj 105 226 f 1;
#X obj 137 227 + 1;
#X msg 120 204 1;
#X obj 105 142 t f b b;
#X obj 78 110 t b f;
#X obj 105 336 list prepend;
#X obj 186 336 t l;
#X obj 78 366 list;
#X obj 78 391 list prepend sinesum 1024;
#X obj 78 413 list trim;
#X obj 78 435 t b a;
#X msg 78 459 normalize 1;
#X msg 105 252 1 \$1;
#X obj 105 273 /;
#X obj 51 34 inlet;
#X obj 78 492 s \$1-bl-sawtemp.mmb;
#X text 49 524 make temporary table with given number of harmonics;
#X obj 51 74 sel 0;
#X msg 23 287 const 0;
#X connect 0 0 1 0;
#X connect 1 0 2 0;
#X connect 1 0 13 0;
#X connect 2 0 1 1;
#X connect 3 0 1 1;
#X connect 4 0 0 0;
#X connect 4 1 3 0;
#X connect 4 2 6 1;
#X connect 5 0 8 0;
#X connect 5 1 4 0;
#X connect 6 0 7 0;
#X connect 6 0 8 1;
#X connect 7 0 6 1;
#X connect 8 0 9 0;
#X connect 9 0 10 0;
#X connect 10 0 11 0;
#X connect 11 0 12 0;
#X connect 11 1 16 0;
#X connect 12 0 16 0;
#X connect 13 0 14 0;
#X connect 14 0 6 0;
#X connect 15 0 18 0;
#X connect 18 0 19 0;
#X connect 18 1 5 0;
#X connect 19 0 16 0;
#X restore 173 682 pd create.saw;
#X obj 764 568 table \$1-bl-parabolatemp.mmb;
#X obj 764 688 table \$1-bl-tritemp.mmb;
#N canvas 0 22 721 692 create.triangle 0;
#X obj 115 180 until;
#X obj 115 236 f 1;
#X obj 147 237 + 1;
#X msg 130 214 1;
#X obj 115 152 t f b b;
#X obj 88 120 t b f;
#X obj 115 576 list prepend;
#X obj 196 576 t l;
#X obj 88 606 list;
#X obj 88 631 list prepend sinesum 1024;
#X obj 88 653 list trim;
#X obj 88 675 t b a;
#X msg 88 699 normalize 1;
#X obj 61 44 inlet;
#X obj 61 84 sel 0;
#X msg 33 297 const 0;
#X obj 140 297 % 2;
#X obj 115 362 sel 0;
#X msg 115 389 0;
#X obj 202 415 f 1;
#X obj 233 416 + 1;
#X obj 147 389 t f b;
#X obj 125 540 expr 1/($f1*$f1)*$f2;
#X obj 202 441 % 2;
#X obj 219 467 sel 0 1;
#X msg 217 500 -1;
#X msg 248 501 1;
#X msg 218 386 1;
#X obj 88 732 s \$1-bl-tritemp.mmb;
#X text 138 69 make temporary triangle table with given number of harmonics;
#X obj 161 361 spigot;
#X obj 114 273 t f f;
#X connect 0 0 1 0;
#X connect 1 0 2 0;
#X connect 1 0 31 0;
#X connect 2 0 1 1;
#X connect 3 0 1 1;
#X connect 4 0 0 0;
#X connect 4 1 3 0;
#X connect 4 1 27 0;
#X connect 4 2 6 1;
#X connect 5 0 8 0;
#X connect 5 1 4 0;
#X connect 6 0 7 0;
#X connect 6 0 8 1;
#X connect 7 0 6 1;
#X connect 8 0 9 0;
#X connect 9 0 10 0;
#X connect 10 0 11 0;
#X connect 11 0 12 0;
#X connect 11 1 28 0;
#X connect 12 0 28 0;
#X connect 13 0 14 0;
#X connect 14 0 15 0;
#X connect 14 1 5 0;
#X connect 15 0 28 0;
#X connect 16 0 30 1;
#X connect 16 0 17 0;
#X connect 17 0 18 0;
#X connect 18 0 6 0;
#X connect 19 0 20 0;
#X connect 19 0 23 0;
#X connect 20 0 19 1;
#X connect 21 0 22 0;
#X connect 21 1 19 0;
#X connect 22 0 6 0;
#X connect 23 0 24 0;
#X connect 24 0 25 0;
#X connect 24 1 26 0;
#X connect 25 0 22 1;
#X connect 26 0 22 1;
#X connect 27 0 19 1;
#X connect 30 0 21 0;
#X connect 31 0 30 0;
#X connect 31 1 16 0;
#X restore 410 704 pd create.triangle;
#X obj 146 579 t f f f f;
#X obj 233 498 s \$1-bl-tritable.mmb;
#X obj 543 271 r \$1-bl-init.ping.mmb;
#X obj 543 301 s \$1-bl-init.pong.mmb;
#X obj 127 349 t f f;
#X obj 310 13 inlet;
#X text 584 37 Step 1 - set the maximum sampling rate (lower sampling rates will work fine);
#X text 155 144 Step 2 - generate wavetables (this will take a few minutes);
#X text 569 388 Step 3 - Save patch.;
#X obj 343 58 >;
#X obj 310 100 t b f;
#X obj 310 37 t f f;
#X obj 311 80 spigot;
#X obj 614 626 table \$1-bl-sawtable.mmb;
#X obj 772 627 table \$1-bl-parabolatable.mmb;
#X obj 765 708 table \$1-bl-tritable.mmb;
#X connect 1 0 2 0;
#X connect 2 0 35 0;
#X connect 3 0 5 0;
#X connect 4 0 1 0;
#X connect 5 0 11 0;
#X connect 5 0 25 0;
#X connect 5 0 32 0;
#X connect 6 0 7 0;
#X connect 7 0 8 0;
#X connect 7 0 31 0;
#X connect 8 0 7 1;
#X connect 9 0 7 1;
#X connect 12 0 16 0;
#X connect 12 1 6 0;
#X connect 12 2 9 0;
#X connect 14 0 13 0;
#X connect 15 0 17 0;
#X connect 15 1 14 0;
#X connect 16 0 13 0;
#X connect 17 0 20 0;
#X connect 18 0 15 0;
#X connect 20 0 4 0;
#X connect 21 0 23 0;
#X connect 23 0 24 0;
#X connect 23 0 40 1;
#X connect 24 0 22 0;
#X connect 24 1 19 0;
#X connect 31 0 10 0;
#X connect 31 1 27 0;
#X connect 31 2 26 0;
#X connect 31 3 30 0;
#X connect 33 0 34 0;
#X connect 35 0 12 0;
#X connect 35 1 3 0;
#X connect 36 0 42 0;
#X connect 40 0 43 1;
#X connect 41 0 18 0;
#X connect 41 1 24 0;
#X connect 42 0 43 0;
#X connect 42 1 40 0;
#X connect 43 0 41 0;
#X restore 30 178 pd bl-init.mmb;
#X obj 30 243 r testTone;
#X obj 30 271 osc~;
#X obj 29 298 dac~;
#X connect 8 0 7 0;
#X connect 8 0 23 0;
#X connect 9 0 10 0;
#X connect 9 0 24 0;
#X connect 11 0 13 0;
#X connect 11 0 25 0;
#X connect 12 0 14 0;
#X connect 12 0 26 0;
#X connect 15 0 19 0;
#X connect 15 0 29 0;
#X connect 16 0 21 0;
#X connect 16 0 30 0;
#X connect 17 0 20 0;
#X connect 17 0 27 0;
#X connect 18 0 22 0;
#X connect 18 0 28 0;
#X connect 31 0 63 0;
#X connect 31 0 51 0;
#X connect 32 0 57 0;
#X connect 33 0 40 0;
#X connect 34 0 59 0;
#X connect 35 0 41 0;
#X connect 36 0 48 0;
#X connect 37 0 42 0;
#X connect 38 0 43 0;
#X connect 39 0 56 0;
#X connect 40 0 46 0;
#X connect 41 0 47 0;
#X connect 42 0 49 0;
#X connect 43 0 50 0;
#X connect 44 0 45 0;
#X connect 45 0 15 0;
#X connect 46 0 11 0;
#X connect 47 0 12 0;
#X connect 48 0 44 0;
#X connect 49 0 16 0;
#X connect 50 0 17 0;
#X connect 52 0 53 0;
#X connect 54 0 51 0;
#X connect 55 0 18 0;
#X connect 56 0 55 0;
#X connect 57 0 58 0;
#X connect 58 0 62 0;
#X connect 59 0 60 0;
#X connect 60 0 61 0;
#X connect 61 0 9 0;
#X connect 62 0 8 0;
#X connect 68 0 69 0;
#X connect 69 0 70 0;
