#N canvas 282 38 1247 859 10;
#X obj 460 785 dac~;
#X obj 310 628 tgl 15 0 empty empty empty 17 7 0 10 #fcfcfc #000000 #000000 0 1;
#X obj 460 731 clip~ -1 1;
#X obj 460 696 hip~ 1;
#X obj 310 607 r dsp1;
#X obj 90 558 r 1_1;
#X obj 127 558 r 1_2;
#X obj 164 558 r 1_3;
#X obj 201 558 r 1_4;
#X obj 238 558 r 1_5;
#X obj 275 558 r 1_6;
#X obj 312 558 r 1_7;
#X obj 349 558 r 1_8;
#X obj 530 559 r 1_pad;
#X obj 472 558 r 1_hold;
#X obj 386 558 r 1_o1;
#X obj 429 558 r 1_o2;
#X obj 802 624 tgl 15 0 empty empty empty 17 7 0 10 #fcfcfc #000000 #000000 0 1;
#X obj 802 603 r dsp2;
#X obj 587 560 r 2_1;
#X obj 624 560 r 2_2;
#X obj 661 560 r 2_3;
#X obj 698 560 r 2_4;
#X obj 735 560 r 2_5;
#X obj 772 560 r 2_6;
#X obj 809 560 r 2_7;
#X obj 846 560 r 2_8;
#X obj 883 560 r 2_o1;
#X obj 926 560 r 2_o2;
#X obj 969 560 r 2_hold;
#X obj 1024 560 r 2_pad;
#N canvas 95 316 1366 638 noiseKit_______________________2 0;
#X floatatom 53 181 5 0 0 0 - - - 0;
#X obj 53 153 line;
#X obj 53 125 pack 1 300;
#X obj 56 105 hsl 128 15 0 1 0 0 empty empty empty -2 -8 0 10 #fcfcfc #000000 #000000 0 1;
#X floatatom 196 181 5 0 0 0 - - - 0;
#X obj 196 153 line;
#X obj 196 125 pack 1 300;
#X obj 199 105 hsl 128 15 0 1 0 0 empty empty empty -2 -8 0 10 #fcfcfc #000000 #000000 0 1;
#X floatatom 338 181 5 0 0 0 - - - 0;
#X obj 338 153 line;
#X obj 338 125 pack 1 300;
#X obj 341 105 hsl 128 15 0 1 0 0 empty empty empty -2 -8 0 10 #fcfcfc #000000 #000000 0 1;
#X floatatom 481 181 5 0 0 0 - - - 0;
#X obj 481 153 line;
#X obj 481 125 pack 1 300;
#X obj 484 105 hsl 128 15 0 1 0 0 empty empty empty -2 -8 0 10 #fcfcfc #000000 #000000 0 1;
#X floatatom 624 181 5 0 0 0 - - - 0;
#X obj 624 153 line;
#X obj 624 125 pack 1 300;
#X obj 627 105 hsl 128 15 0 1 0 0 empty empty empty -2 -8 0 10 #fcfcfc #000000 #000000 0 1;
#X floatatom 767 181 5 0 0 0 - - - 0;
#X obj 767 153 line;
#X obj 767 125 pack 1 300;
#X obj 770 105 hsl 128 15 0 1 0 0 empty empty empty -2 -8 0 10 #fcfcfc #000000 #000000 0 1;
#X floatatom 909 181 5 0 0 0 - - - 0;
#X obj 909 153 line;
#X obj 909 125 pack 1 300;
#X obj 912 105 hsl 128 15 0 1 0 0 empty empty empty -2 -8 0 10 #fcfcfc #000000 #000000 0 1;
#X floatatom 1052 181 5 0 0 0 - - - 0;
#X obj 1052 153 line;
#X obj 1052 125 pack 1 300;
#X obj 1055 105 hsl 128 15 0 1 0 0 empty empty empty -2 -8 0 10 #fcfcfc #000000 #000000 0 1;
#X obj 593 592 *~ 1;
#X obj 808 536 line;
#X obj 849 448 pack 1 50;
#X obj 703 322 select 1;
#X msg 668 431 0;
#X obj 849 374 select 1;
#X msg 849 402 1;
#X msg 918 402 0;
#X floatatom 849 322 5 0 0 0 - - - 0;
#X obj 808 507 spigot;
#X msg 626 431 1;
#X obj 726 366 t b b;
#X msg 726 431 0;
#X msg 768 431 1;
#X obj 11 340 hsl 128 15 0 1 0 0 empty empty empty -2 -8 0 10 #fcfcfc #000000 #000000 0 1;
#X obj 81 489 hsl 128 15 0 1 0 0 empty empty empty -2 -8 0 10 #fcfcfc #000000 #000000 0 1;
#N canvas 181 174 1306 747 noiseMaking__________________________ 1;
#X obj 318 23 inlet;
#X floatatom 318 52 5 0 0 0 carrier_freq - - 0;
#X floatatom 318 133 5 0 0 0 - - - 0;
#X obj 318 158 sig~;
#X obj 318 396 *~;
#X obj 318 424 *~;
#X obj 318 452 +~;
#X obj 482 608 clip~ -1 1;
#X obj 482 717 outlet~;
#X obj 379 23 inlet;
#X floatatom 379 52 5 0 0 1 feedback_index - - 0;
#X floatatom 379 133 5 0 0 0 - - - 0;
#X obj 379 158 sig~;
#X obj 723 23 inlet;
#X floatatom 723 52 5 0 0 0 mod_freq - - 0;
#X floatatom 723 133 5 0 0 0 - - - 0;
#X obj 723 158 sig~;
#X obj 792 23 inlet;
#X floatatom 792 52 5 0 0 1 mod_index - - 0;
#X floatatom 792 133 5 0 0 0 - - - 0;
#X obj 792 158 sig~;
#X obj 318 258 +~;
#X obj 723 105 + 60;
#X obj 357 227 *~;
#X obj 379 105 + 0.1;
#X obj 318 506 osc~;
#X obj 318 314 osc~;
#N canvas 165 38 1275 638 feedbacke_mod 0;
#X obj 134 -63 sig~;
#X obj 264 330 *~;
#X obj 264 359 +~;
#X obj 618 -63 sig~;
#X obj 541 -63 sig~;
#X obj 264 410 osc~;
#X obj 407 -63 sig~;
#X obj 264 297 *~;
#X obj 333 539 outlet~;
#X obj 335 109 +~;
#X obj 335 137 osc~;
#X obj 359 81 *~;
#X obj 407 -91 + 0.3;
#X obj 618 -91 + 100;
#X obj 383 53 *~;
#X obj 133 -192 inlet;
#X obj 407 -192 inlet;
#X obj 541 -192 inlet;
#X obj 618 -192 inlet;
#X obj 111 539 delwrite~ fb_modder 2;
#X floatatom 136 -152 5 0 0 0 - - - 0;
#X floatatom 402 -155 5 0 0 0 - - - 0;
#X floatatom 528 -152 5 0 0 0 - - - 0;
#X floatatom 613 -153 5 0 0 0 - - - 0;
#X obj 226 -28 delread~ fb_modder 2;
#X obj 185 107 phasor~;
#X obj 407 -119 * 10;
#X obj 132 -120 * 30;
#X obj 264 451 clip~ -1 1;
#X obj 111 500 clip~ -0.9 0.9;
#X obj 132 -91 + 10;
#X obj 541 -91 + 50;
#X floatatom 751 204 5 0 0 0 - - - 0;
#X floatatom 831 232 5 0 0 0 - - - 0;
#X obj 751 168 + 768;
#X obj 751 135 * 512;
#X obj 827 144 loadbang;
#X msg 827 183 32;
#X obj 750 45 loadbang;
#X obj 541 -119 * 200;
#X obj 616 -119 * 200;
#X msg 750 84 0.1;
#X connect 0 0 11 0;
#X connect 0 0 9 0;
#X connect 1 0 2 0;
#X connect 2 0 5 0;
#X connect 3 0 7 1;
#X connect 4 0 1 1;
#X connect 4 0 2 1;
#X connect 5 0 28 0;
#X connect 5 0 29 0;
#X connect 6 0 14 1;
#X connect 7 0 1 0;
#X connect 9 0 10 0;
#X connect 11 0 9 1;
#X connect 12 0 6 0;
#X connect 13 0 3 0;
#X connect 14 0 11 1;
#X connect 15 0 20 0;
#X connect 16 0 21 0;
#X connect 17 0 22 0;
#X connect 18 0 23 0;
#X connect 20 0 27 0;
#X connect 21 0 26 0;
#X connect 22 0 39 0;
#X connect 23 0 40 0;
#X connect 24 0 14 0;
#X connect 25 0 7 0;
#X connect 26 0 12 0;
#X connect 27 0 30 0;
#X connect 28 0 8 0;
#X connect 29 0 19 0;
#X connect 30 0 0 0;
#X connect 30 0 25 0;
#X connect 31 0 4 0;
#X connect 34 0 32 0;
#X connect 35 0 34 0;
#X connect 36 0 37 0;
#X connect 37 0 33 0;
#X connect 38 0 41 0;
#X connect 39 0 31 0;
#X connect 40 0 13 0;
#X connect 41 0 35 0;
#X coords 0 638 1 637 250 180 0;
#X restore 989 458 pd feedbacke_mod;
#X obj 1011 11 inlet;
#X obj 1083 11 inlet;
#X obj 1155 11 inlet;
#X obj 1227 11 inlet;
#X obj 482 571 *~;
#X obj 379 77 * 10;
#X obj 215 613 clip~ -0.9 0.9;
#X obj 318 77 * 10;
#X obj 318 105 + 0.5;
#X obj 792 77 * 200;
#X obj 792 104 + 50;
#X obj 723 77 * 3000;
#X floatatom 691 347 5 0 0 0 - - - 0;
#X obj 691 311 + 1;
#X floatatom 771 348 5 0 0 0 - - - 0;
#X obj 691 278 * 1023;
#X obj 771 271 loadbang;
#X msg 771 310 64;
#X obj 486 139 delread~ fb2_del 2;
#X obj 215 659 delwrite~ fb2_del 2;
#X obj 762 207 loadbang;
#X msg 762 246 0.1;
#X obj 1314 12 inlet;
#X obj 85 52 table osc1_array;
#X obj 66 124 table osc2_array;
#X connect 0 0 1 0;
#X connect 1 0 35 0;
#X connect 2 0 3 0;
#X connect 3 0 21 0;
#X connect 4 0 5 0;
#X connect 5 0 6 0;
#X connect 6 0 25 0;
#X connect 7 0 8 0;
#X connect 9 0 10 0;
#X connect 10 0 33 0;
#X connect 11 0 12 0;
#X connect 12 0 23 0;
#X connect 13 0 14 0;
#X connect 14 0 39 0;
#X connect 15 0 16 0;
#X connect 16 0 5 1;
#X connect 16 0 6 1;
#X connect 17 0 18 0;
#X connect 18 0 37 0;
#X connect 19 0 20 0;
#X connect 20 0 4 1;
#X connect 21 0 26 0;
#X connect 22 0 15 0;
#X connect 23 0 21 1;
#X connect 24 0 11 0;
#X connect 25 0 34 0;
#X connect 25 0 32 0;
#X connect 27 0 32 1;
#X connect 28 0 27 0;
#X connect 29 0 27 1;
#X connect 30 0 27 2;
#X connect 31 0 27 3;
#X connect 32 0 7 0;
#X connect 33 0 24 0;
#X connect 34 0 47 0;
#X connect 35 0 36 0;
#X connect 36 0 2 0;
#X connect 37 0 38 0;
#X connect 38 0 19 0;
#X connect 39 0 22 0;
#X connect 41 0 40 0;
#X connect 43 0 41 0;
#X connect 44 0 45 0;
#X connect 45 0 42 0;
#X connect 46 0 23 1;
#X connect 48 0 49 0;
#X connect 49 0 43 0;
#X coords 0 -1 1 1 85 60 1 100 100;
#X restore 53 249 pd noiseMaking__________________________;
#X obj 9 459 line;
#X obj 9 431 pack 1 300;
#X obj 78 543 line;
#X obj 78 515 pack 1 300;
#X obj 1015 511 loadbang;
#X obj 1015 546 t b b b b;
#X obj 593 674 outlet~;
#X obj 53 77 inlet;
#X obj 196 77 inlet;
#X obj 338 77 inlet;
#X obj 481 77 inlet;
#X obj 624 77 inlet;
#X obj 767 77 inlet;
#X obj 909 77 inlet;
#X obj 1052 77 inlet;
#X obj 1101 77 inlet;
#X obj 1142 77 inlet;
#X obj 1182 77 inlet;
#X obj 1223 77 inlet;
#X obj 1270 77 inlet;
#X obj 1247 155 tgl 15 0 empty empty empty 17 7 0 10 #fcfcfc #000000 #000000 0 1;
#X obj 1246 294 vline~;
#X obj 1217 199 select 1;
#X obj 1217 229 t b b;
#X msg 1217 263 1;
#X floatatom 1289 321 5 0 0 0 - - - 0;
#X obj 1289 344 select 0;
#X msg 1289 372 0;
#X obj 1263 373 bng 15 250 50 0 empty empty empty 17 7 0 10 #fcfcfc #000000 #000000;
#X obj 1289 294 line;
#X obj 1263 228 t b;
#X msg 1263 261 0 500;
#X msg 1323 263 1 500;
#X obj 1217 436 switch~;
#X obj 595 627 *~;
#X floatatom 9 487 5 0 0 0 - - - 0;
#X floatatom 78 571 5 0 0 0 - - - 0;
#X obj 660 371 t b b;
#N canvas 63 101 911 557 effect 0;
#X floatatom 248 167 5 0 0 0 - - - 0;
#X floatatom 291 191 5 0 0 0 - - - 0;
#X floatatom 333 214 5 0 0 0 - - - 0;
#X floatatom 376 240 5 0 0 0 - - - 0;
#X msg 90 229 clear;
#X text 53 207 clear buffer;
#X text 297 167 D = delay time;
#X text 335 191 a = input (pre delay) amplitude coefficient;
#X text 381 215 b = input (post delay) amplitude coefficient;
#X text 421 241 c = outnput amplitude coefficient;
#X obj 230 70 inlet~;
#X obj 400 435 outlet~;
#X obj 342 65 inlet;
#X obj 443 76 inlet;
#X obj 342 110 clip 1 79;
#X obj 443 121 clip 0.1 0.5;
#X obj 141 454 outlet~;
#X obj 648 77 inlet;
#X floatatom 574 282 5 0 0 0 - - - 0;
#X obj 606 429 - 1;
#X obj 574 331 trigger b f;
#X floatatom 601 467 5 0 0 0 - - - 0;
#X obj 564 383 f 1;
#X obj 355 394 *~;
#X obj 180 392 *~;
#X connect 10 0 24 0;
#X connect 10 0 23 0;
#X connect 12 0 14 0;
#X connect 13 0 15 0;
#X connect 14 0 0 0;
#X connect 15 0 2 0;
#X connect 17 0 18 0;
#X connect 18 0 20 0;
#X connect 18 0 23 1;
#X connect 19 0 21 0;
#X connect 20 0 22 0;
#X connect 20 1 19 1;
#X connect 21 0 24 1;
#X connect 22 0 19 0;
#X connect 23 0 11 0;
#X connect 24 0 16 0;
#X restore 384 400 pd effect;
#X obj 34 544 + 1;
#X obj 443 615 +~;
#X obj 460 404 *~ 0.4;
#X obj 416 578 *~ 0.6;
#X obj 523 591 *~ 1;
#X obj 28 522 * 12;
#X obj 90 603 * 0.4;
#X obj 137 396 line;
#X obj 137 368 pack 1 300;
#X floatatom 137 424 5 0 0 0 - - - 0;
#X obj 595 649 *~ 0.5;
#X msg 690 603 \; osc2_array sinesum 2051 1 0 -0.1 0 \; osc2_array normalize 1 \;;
#X msg 1079 603 \; osc1_array sinesum 2051 1 0 -0.1 0 \; osc1_array normalize 1 \;;
#X connect 0 0 48 0;
#X connect 1 0 0 0;
#X connect 2 0 1 0;
#X connect 3 0 2 0;
#X connect 4 0 48 1;
#X connect 5 0 4 0;
#X connect 6 0 5 0;
#X connect 7 0 6 0;
#X connect 8 0 48 2;
#X connect 9 0 8 0;
#X connect 10 0 9 0;
#X connect 11 0 10 0;
#X connect 12 0 48 3;
#X connect 13 0 12 0;
#X connect 14 0 13 0;
#X connect 15 0 14 0;
#X connect 16 0 48 4;
#X connect 17 0 16 0;
#X connect 18 0 17 0;
#X connect 19 0 18 0;
#X connect 20 0 48 5;
#X connect 21 0 20 0;
#X connect 22 0 21 0;
#X connect 23 0 22 0;
#X connect 24 0 48 6;
#X connect 25 0 24 0;
#X connect 26 0 25 0;
#X connect 27 0 26 0;
#X connect 28 0 48 7;
#X connect 29 0 28 0;
#X connect 30 0 29 0;
#X connect 31 0 30 0;
#X connect 32 0 87 0;
#X connect 33 0 32 1;
#X connect 33 0 92 1;
#X connect 34 0 41 0;
#X connect 35 0 86 0;
#X connect 35 1 43 0;
#X connect 36 0 41 1;
#X connect 37 0 38 0;
#X connect 37 1 39 0;
#X connect 38 0 34 0;
#X connect 39 0 34 0;
#X connect 40 0 37 0;
#X connect 41 0 33 0;
#X connect 42 0 32 1;
#X connect 42 0 92 1;
#X connect 43 0 44 0;
#X connect 43 1 45 0;
#X connect 44 0 32 1;
#X connect 44 0 92 1;
#X connect 45 0 41 1;
#X connect 46 0 96 0;
#X connect 47 0 52 0;
#X connect 47 0 50 0;
#X connect 48 0 32 0;
#X connect 48 0 90 0;
#X connect 49 0 84 0;
#X connect 50 0 49 0;
#X connect 51 0 85 0;
#X connect 52 0 51 0;
#X connect 53 0 54 0;
#X connect 54 0 99 0;
#X connect 54 1 100 0;
#X connect 56 0 3 0;
#X connect 57 0 7 0;
#X connect 58 0 11 0;
#X connect 59 0 15 0;
#X connect 60 0 19 0;
#X connect 61 0 23 0;
#X connect 62 0 27 0;
#X connect 63 0 31 0;
#X connect 64 0 46 0;
#X connect 65 0 47 0;
#X connect 66 0 35 0;
#X connect 67 0 40 0;
#X connect 68 0 69 0;
#X connect 69 0 71 0;
#X connect 70 0 83 1;
#X connect 71 0 72 0;
#X connect 71 1 79 0;
#X connect 72 0 73 0;
#X connect 72 1 81 0;
#X connect 73 0 82 0;
#X connect 74 0 75 0;
#X connect 75 0 76 0;
#X connect 75 0 77 0;
#X connect 76 0 82 0;
#X connect 78 0 74 0;
#X connect 79 0 80 0;
#X connect 80 0 70 0;
#X connect 80 0 78 0;
#X connect 81 0 70 0;
#X connect 81 0 78 0;
#X connect 83 0 98 0;
#X connect 84 0 93 0;
#X connect 85 0 94 0;
#X connect 86 0 42 0;
#X connect 86 1 36 0;
#X connect 87 1 91 0;
#X connect 88 0 87 1;
#X connect 89 0 83 0;
#X connect 90 0 92 0;
#X connect 91 0 89 1;
#X connect 92 0 89 0;
#X connect 93 0 88 0;
#X connect 94 0 87 2;
#X connect 95 0 97 0;
#X connect 96 0 95 0;
#X connect 97 0 87 3;
#X connect 98 0 55 0;
#X restore 584 603 pd noiseKit_______________________2;
#N canvas 136 98 1376 777 noiseKit_______________________1 0;
#X obj 23 630 outlet~;
#X obj 23 26 inlet;
#X obj 92 26 inlet;
#X obj 161 26 inlet;
#X obj 230 26 inlet;
#X obj 299 26 inlet;
#X obj 368 26 inlet;
#X obj 437 26 inlet;
#X obj 506 26 inlet;
#N canvas 146 284 1366 638 feedbacke 0;
#X obj 416 -192 inlet;
#X floatatom 416 -163 5 0 0 0 carrier_freq - - 0;
#X obj 416 -110 + 10;
#X floatatom 416 -82 5 0 0 0 - - - 0;
#X obj 416 -57 sig~;
#X obj 416 126 *~;
#X obj 416 154 *~;
#X obj 416 182 +~;
#X obj 580 426 clip~ -1 1;
#X obj 580 502 outlet~;
#X obj 477 -192 inlet;
#X floatatom 477 -163 5 0 0 1 feedback_index - - 0;
#X floatatom 477 -82 5 0 0 0 - - - 0;
#X obj 477 -57 sig~;
#X obj 821 -192 inlet;
#X floatatom 821 -163 5 0 0 0 mod_freq - - 0;
#X floatatom 821 -82 5 0 0 0 - - - 0;
#X obj 821 -57 sig~;
#X obj 890 -192 inlet;
#X floatatom 890 -163 5 0 0 1 mod_index - - 0;
#X floatatom 890 -82 5 0 0 0 - - - 0;
#X obj 890 -57 sig~;
#X obj 416 43 +~;
#X obj 821 -110 + 60;
#X obj 455 12 *~;
#X obj 477 -110 + 0.1;
#X obj 890 -111 + 10;
#X obj 890 -138 * 10;
#X obj 821 -138 * 1000;
#X obj 477 -138 * 50;
#X obj 416 86 osc~;
#X obj 416 -138 * 1300;
#X obj 428 272 osc~;
#X obj 584 -76 delread~ fb_deloto 2;
#X obj 330 485 delwrite~ fb_deloto 2;
#X connect 0 0 1 0;
#X connect 1 0 31 0;
#X connect 2 0 3 0;
#X connect 3 0 4 0;
#X connect 4 0 22 0;
#X connect 5 0 6 0;
#X connect 6 0 7 0;
#X connect 7 0 32 0;
#X connect 8 0 9 0;
#X connect 8 0 34 0;
#X connect 10 0 11 0;
#X connect 11 0 29 0;
#X connect 12 0 13 0;
#X connect 13 0 24 0;
#X connect 14 0 15 0;
#X connect 15 0 28 0;
#X connect 16 0 17 0;
#X connect 17 0 6 1;
#X connect 17 0 7 1;
#X connect 18 0 19 0;
#X connect 19 0 27 0;
#X connect 20 0 21 0;
#X connect 21 0 5 1;
#X connect 22 0 30 0;
#X connect 23 0 16 0;
#X connect 24 0 22 1;
#X connect 25 0 12 0;
#X connect 26 0 20 0;
#X connect 27 0 26 0;
#X connect 28 0 23 0;
#X connect 29 0 25 0;
#X connect 30 0 5 0;
#X connect 31 0 2 0;
#X connect 32 0 8 0;
#X connect 33 0 24 1;
#X coords 0 638 1 637 250 180 0;
#X restore 23 256 pd feedbacke;
#X obj 23 315 *~;
#N canvas 66 73 1275 849 feedbacke_mod 0;
#X obj 416 337 *~;
#X obj 416 365 *~;
#X obj 416 393 +~;
#X obj 580 640 clip~ -1 1;
#X obj 580 713 outlet~;
#X obj 821 19 inlet;
#X floatatom 821 48 5 0 0 0 mod_freq - - 0;
#X floatatom 821 129 5 0 0 0 - - - 0;
#X obj 821 154 sig~;
#X obj 890 19 inlet;
#X floatatom 890 48 5 0 0 1 mod_index - - 0;
#X floatatom 890 129 5 0 0 0 - - - 0;
#X obj 890 154 sig~;
#X obj 821 101 + 60;
#X obj 890 100 + 10;
#X obj 890 73 * 10;
#X obj 821 73 * 1000;
#X obj 453 467 osc~;
#X obj 416 297 osc~ 0;
#X connect 0 0 1 0;
#X connect 1 0 2 0;
#X connect 2 0 17 0;
#X connect 3 0 4 0;
#X connect 5 0 6 0;
#X connect 6 0 16 0;
#X connect 7 0 8 0;
#X connect 8 0 1 1;
#X connect 8 0 2 1;
#X connect 9 0 10 0;
#X connect 10 0 15 0;
#X connect 11 0 12 0;
#X connect 12 0 0 1;
#X connect 13 0 7 0;
#X connect 14 0 11 0;
#X connect 15 0 14 0;
#X connect 16 0 13 0;
#X connect 17 0 3 0;
#X connect 18 0 0 0;
#X coords 0 849 1 848 250 180 0;
#X restore 594 256 pd feedbacke_mod;
#X floatatom 23 207 5 0 0 0 - - - 0;
#X obj 23 179 line;
#X obj 23 151 pack 1 300;
#X obj 26 131 hsl 128 15 0 1 0 0 empty empty empty -2 -8 0 10 #fcfcfc #000000 #000000 0 1;
#X floatatom 166 207 5 0 0 0 - - - 0;
#X obj 166 179 line;
#X obj 166 151 pack 1 300;
#X obj 169 131 hsl 128 15 0 1 0 0 empty empty empty -2 -8 0 10 #fcfcfc #000000 #000000 0 1;
#X floatatom 308 207 5 0 0 0 - - - 0;
#X obj 308 179 line;
#X obj 308 151 pack 1 300;
#X obj 311 131 hsl 128 15 0 1 0 0 empty empty empty -2 -8 0 10 #fcfcfc #000000 #000000 0 1;
#X floatatom 451 207 5 0 0 0 - - - 0;
#X obj 451 179 line;
#X obj 451 151 pack 1 300;
#X obj 454 131 hsl 128 15 0 1 0 0 empty empty empty -2 -8 0 10 #fcfcfc #000000 #000000 0 1;
#X floatatom 594 207 5 0 0 0 - - - 0;
#X obj 594 179 line;
#X obj 594 151 pack 1 300;
#X obj 597 131 hsl 128 15 0 1 0 0 empty empty empty -2 -8 0 10 #fcfcfc #000000 #000000 0 1;
#X floatatom 737 207 5 0 0 0 - - - 0;
#X obj 737 179 line;
#X obj 737 151 pack 1 300;
#X obj 740 131 hsl 128 15 0 1 0 0 empty empty empty -2 -8 0 10 #fcfcfc #000000 #000000 0 1;
#X floatatom 879 207 5 0 0 0 - - - 0;
#X obj 879 179 line;
#X obj 879 151 pack 1 300;
#X obj 882 131 hsl 128 15 0 1 0 0 empty empty empty -2 -8 0 10 #fcfcfc #000000 #000000 0 1;
#X floatatom 1022 207 5 0 0 0 - - - 0;
#X obj 1022 179 line;
#X obj 1022 151 pack 1 300;
#X obj 1025 131 hsl 128 15 0 1 0 0 empty empty empty -2 -8 0 10 #fcfcfc #000000 #000000 0 1;
#X obj 23 356 *~ 1;
#X obj 1084 561 line;
#X obj 1084 461 pack 1 50;
#X obj 958 410 select 1;
#X msg 988 461 0;
#X obj 1084 417 select 1;
#X msg 1084 439 1;
#X msg 1129 439 0;
#X floatatom 1084 395 5 0 0 0 - - - 0;
#X obj 1084 532 spigot;
#X obj 958 435 t b b;
#X msg 958 461 1;
#X obj 1021 435 t b b;
#X msg 1021 461 0;
#X msg 1052 461 1;
#X text 570 525 <-- delay time;
#X obj 23 457 +~;
#X obj 435 661 *~ 0.7;
#X floatatom 435 612 5 0 0 0 - - - 0;
#X obj 435 591 line;
#X obj 435 569 pack 1 300;
#X obj 438 527 hsl 128 15 0 1 0 0 empty empty empty -2 -8 0 10 #fcfcfc #000000 #000000 0 1;
#X floatatom 570 631 5 0 0 0 - - - 0;
#X obj 570 610 line;
#X obj 570 589 pack 1 300;
#X obj 573 547 hsl 128 15 0 1 0 0 empty empty empty -2 -8 0 10 #fcfcfc #000000 #000000 0 1;
#X obj 570 567 clip 0 0.9;
#X text 704 546 <-- feedback;
#X obj 435 547 * 500;
#X obj 945 17 inlet;
#X obj 1014 17 inlet;
#X obj 1083 17 inlet;
#X obj 1159 17 inlet;
#X obj 1215 17 inlet;
#X obj 1192 97 tgl 15 0 empty empty empty 17 7 0 10 #fcfcfc #000000 #000000 0 1;
#X obj 1191 236 vline~;
#X obj 23 578 *~;
#X obj 1162 141 select 1;
#X obj 1162 171 t b b;
#X msg 1162 205 1;
#X floatatom 1234 263 5 0 0 0 - - - 0;
#X obj 1234 286 select 0;
#X msg 1234 314 0;
#X obj 1208 315 bng 15 250 50 0 empty empty empty 17 7 0 10 #fcfcfc #000000 #000000;
#X obj 1234 236 line;
#X obj 1208 170 t b;
#X msg 1208 203 0 500;
#X msg 1268 205 1 500;
#X obj 1162 378 switch~;
#X obj 33 500 delwrite~ FB03-delto 2000;
#X obj 381 631 delread~ FB03-delto 160;
#X obj 23 600 *~ 0.3;
#X connect 1 0 15 0;
#X connect 2 0 19 0;
#X connect 3 0 23 0;
#X connect 4 0 27 0;
#X connect 5 0 31 0;
#X connect 5 0 19 0;
#X connect 6 0 35 0;
#X connect 6 0 39 0;
#X connect 7 0 39 0;
#X connect 8 0 43 0;
#X connect 9 0 10 0;
#X connect 10 0 44 0;
#X connect 11 0 10 1;
#X connect 12 0 9 0;
#X connect 13 0 12 0;
#X connect 14 0 13 0;
#X connect 15 0 14 0;
#X connect 16 0 9 1;
#X connect 17 0 16 0;
#X connect 18 0 17 0;
#X connect 19 0 18 0;
#X connect 20 0 9 2;
#X connect 21 0 20 0;
#X connect 22 0 21 0;
#X connect 23 0 22 0;
#X connect 24 0 9 3;
#X connect 25 0 24 0;
#X connect 26 0 25 0;
#X connect 27 0 26 0;
#X connect 29 0 28 0;
#X connect 30 0 29 0;
#X connect 31 0 30 0;
#X connect 33 0 32 0;
#X connect 34 0 33 0;
#X connect 35 0 34 0;
#X connect 36 0 11 0;
#X connect 37 0 36 0;
#X connect 38 0 37 0;
#X connect 39 0 38 0;
#X connect 40 0 11 1;
#X connect 41 0 40 0;
#X connect 42 0 41 0;
#X connect 43 0 42 0;
#X connect 44 0 60 0;
#X connect 45 0 44 1;
#X connect 46 0 53 0;
#X connect 47 0 54 0;
#X connect 47 1 56 0;
#X connect 48 0 53 1;
#X connect 49 0 50 0;
#X connect 49 1 51 0;
#X connect 50 0 46 0;
#X connect 51 0 46 0;
#X connect 52 0 49 0;
#X connect 53 0 45 0;
#X connect 54 0 55 0;
#X connect 54 1 48 0;
#X connect 55 0 44 1;
#X connect 56 0 57 0;
#X connect 56 1 58 0;
#X connect 57 0 44 1;
#X connect 58 0 53 1;
#X connect 60 0 80 0;
#X connect 60 0 93 0;
#X connect 61 0 60 1;
#X connect 62 0 94 0;
#X connect 63 0 62 0;
#X connect 64 0 63 0;
#X connect 65 0 72 0;
#X connect 66 0 61 1;
#X connect 67 0 66 0;
#X connect 68 0 67 0;
#X connect 69 0 70 0;
#X connect 70 0 68 0;
#X connect 72 0 64 0;
#X connect 73 0 65 0;
#X connect 74 0 69 0;
#X connect 75 0 47 0;
#X connect 76 0 52 0;
#X connect 77 0 78 0;
#X connect 78 0 81 0;
#X connect 79 0 80 1;
#X connect 80 0 95 0;
#X connect 81 0 82 0;
#X connect 81 1 89 0;
#X connect 82 0 83 0;
#X connect 82 1 91 0;
#X connect 83 0 92 0;
#X connect 84 0 85 0;
#X connect 85 0 86 0;
#X connect 85 0 87 0;
#X connect 86 0 92 0;
#X connect 88 0 84 0;
#X connect 89 0 90 0;
#X connect 90 0 79 0;
#X connect 90 0 88 0;
#X connect 91 0 79 0;
#X connect 91 0 88 0;
#X connect 94 0 61 0;
#X connect 95 0 0 0;
#X restore 90 609 pd noiseKit_______________________1;
#X obj 801 745 tgl 15 0 empty empty empty 17 7 0 10 #fcfcfc #000000 #000000 0 1;
#X obj 583 675 r 3_1;
#X obj 620 675 r 3_2;
#X obj 657 675 r 3_3;
#X obj 694 675 r 3_4;
#X obj 731 675 r 3_5;
#X obj 768 675 r 3_6;
#X obj 805 675 r 3_7;
#X obj 842 675 r 3_8;
#X obj 879 675 r 3_o1;
#X obj 922 675 r 3_o2;
#X obj 965 675 r 3_hold;
#X obj 1020 675 r 3_pad;
#X obj 801 724 r dsp3;
#N canvas 130 198 1364 724 noiseKit_______________________3 0;
#X obj 24 670 outlet~;
#X obj 23 26 inlet;
#X obj 92 26 inlet;
#X obj 161 26 inlet;
#X obj 230 26 inlet;
#X obj 299 26 inlet;
#X obj 368 26 inlet;
#X obj 437 26 inlet;
#X obj 506 26 inlet;
#X floatatom 23 207 5 0 0 0 - - - 0;
#X obj 23 179 line;
#X obj 23 151 pack 1 300;
#X obj 20 123 hsl 128 15 0 1 0 0 empty empty empty -2 -8 0 10 #fcfcfc #000000 #000000 0 1;
#X floatatom 166 207 5 0 0 0 - - - 0;
#X obj 166 179 line;
#X obj 166 151 pack 1 300;
#X obj 169 131 hsl 128 15 0 1 0 0 empty empty empty -2 -8 0 10 #fcfcfc #000000 #000000 0 1;
#X floatatom 308 207 5 0 0 0 - - - 0;
#X obj 308 179 line;
#X obj 308 151 pack 1 300;
#X obj 311 131 hsl 128 15 0 1 0 0 empty empty empty -2 -8 0 10 #fcfcfc #000000 #000000 0 1;
#X floatatom 451 207 5 0 0 0 - - - 0;
#X obj 451 179 line;
#X obj 451 151 pack 1 300;
#X obj 454 131 hsl 128 15 0 1 0 0 empty empty empty -2 -8 0 10 #fcfcfc #000000 #000000 0 1;
#X floatatom 594 207 5 0 0 0 - - - 0;
#X obj 594 179 line;
#X obj 594 151 pack 1 300;
#X obj 597 131 hsl 128 15 0 1 0 0 empty empty empty -2 -8 0 10 #fcfcfc #000000 #000000 0 1;
#X floatatom 737 207 5 0 0 0 - - - 0;
#X obj 737 179 line;
#X obj 737 151 pack 1 300;
#X obj 740 131 hsl 128 15 0 1 0 0 empty empty empty -2 -8 0 10 #fcfcfc #000000 #000000 0 1;
#X floatatom 879 207 5 0 0 0 - - - 0;
#X obj 879 179 line;
#X obj 879 151 pack 1 300;
#X obj 882 131 hsl 128 15 0 1 0 0 empty empty empty -2 -8 0 10 #fcfcfc #000000 #000000 0 1;
#X floatatom 1022 207 5 0 0 0 - - - 0;
#X obj 1022 179 line;
#X obj 1022 151 pack 1 300;
#X obj 1025 131 hsl 128 15 0 1 0 0 empty empty empty -2 -8 0 10 #fcfcfc #000000 #000000 0 1;
#X obj 1084 561 line;
#X obj 1084 461 pack 1 50;
#X obj 958 410 select 1;
#X msg 988 461 0;
#X obj 1084 417 select 1;
#X msg 1084 439 1;
#X msg 1129 439 0;
#X floatatom 1084 395 5 0 0 0 - - - 0;
#X obj 1084 532 spigot;
#X obj 958 435 t b b;
#X msg 958 461 1;
#X obj 1021 435 t b b;
#X msg 1021 461 0;
#X msg 1052 461 1;
#X obj 945 17 inlet;
#X obj 1014 17 inlet;
#X obj 1083 17 inlet;
#X obj 1159 17 inlet;
#X obj 1215 17 inlet;
#X obj 1192 97 tgl 15 0 empty empty empty 17 7 0 10 #fcfcfc #000000 #000000 0 1;
#X obj 1191 236 vline~;
#X obj 23 578 *~;
#X obj 1162 141 select 1;
#X obj 1162 171 t b b;
#X msg 1162 205 1;
#X floatatom 1234 263 5 0 0 0 - - - 0;
#X obj 1234 286 select 0;
#X msg 1234 314 0;
#X obj 1208 315 bng 15 250 50 0 empty empty empty 17 7 0 10 #fcfcfc #000000 #000000;
#X obj 1234 236 line;
#X msg 1208 203 0 500;
#X msg 1268 205 1 500;
#X obj 1162 378 switch~;
#X floatatom 860 413 5 0 0 0 - - - 0;
#N canvas 111 38 1302 856 sounder_____________________________________________ 0;
#X obj 30 -86 inlet;
#X obj 885 -101 inlet;
#X obj 81 -87 inlet;
#X obj 125 -89 inlet;
#X obj 344 821 outlet~;
#X obj 173 -86 inlet;
#X obj 435 -107 inlet;
#X obj 502 -108 inlet;
#X obj 542 -110 inlet;
#X obj 599 -110 inlet;
#X floatatom 30 -59 5 0 0 0 - - - 0;
#X floatatom 75 -58 5 0 0 0 - - - 0;
#X floatatom 123 -54 5 0 0 0 - - - 0;
#X obj 958 -96 inlet;
#X obj 1118 -84 inlet;
#X floatatom 184 -54 5 0 0 0 - - - 0;
#X obj 240 76 vline~;
#X obj 669 132 phasor~ 1;
#X obj 874 81 unpack f f f f f f f f;
#X msg 870 48 1.3 0.1 1.7 0.05 2.4 0.02 8.1 0.012;
#X obj 669 182 *~;
#X obj 669 204 wrap~;
#X obj 669 226 *~;
#X obj 710 182 *~;
#X obj 710 204 wrap~;
#X obj 710 226 *~;
#X obj 752 182 *~;
#X obj 752 204 wrap~;
#X obj 752 226 *~;
#X obj 793 182 *~;
#X obj 793 204 wrap~;
#X obj 793 226 *~;
#X obj 764 293 rzero~;
#X obj 240 465 bp~ 1 1;
#X obj 291 465 bp~ 1 1;
#X obj 342 465 bp~ 1 1;
#X obj 393 465 bp~ 1 1;
#X msg 381 388 359 426 1748 3000 123;
#X obj 382 411 unpack f f f f f;
#X obj 240 362 *~;
#X obj 240 112 *~ 0.5;
#X obj 240 134 -~ 0.25;
#X obj 240 156 cos~;
#X obj 240 178 lop~ 0.1;
#X obj 240 200 *~ 5;
#X obj 240 222 *~ 0.1;
#X obj 240 244 sqrt~;
#X obj 764 321 *~ 0.5;
#X obj 1025 167 lop~ 20;
#X obj 1025 189 lop~ 20;
#X obj 1025 211 max~ 0;
#X obj 1025 255 phasor~;
#X obj 1025 277 -~ 0.5;
#X obj 1025 304 *~;
#X obj 1025 326 *~ -4;
#X obj 1025 348 +~ 1;
#X obj 1025 370 *~ 0.5;
#X obj 1025 405 lop~ 90;
#X obj 1025 427 samphold~;
#X obj 1025 449 rzero~ 0.99;
#X obj 1025 471 *~ 12;
#X obj 997 505 +~;
#X floatatom 18 81 5 0 0 0 - - - 0;
#X floatatom 62 81 5 0 0 0 - - - 0;
#X floatatom 103 82 5 0 0 0 - - - 0;
#X floatatom 145 83 5 0 0 0 - - - 0;
#X obj 1118 -57 tgl 15 0 empty empty empty 17 7 0 10 #fcfcfc #000000 #000000 0 1;
#X floatatom 449 -4 5 0 0 0 - - - 0;
#X floatatom 492 1 5 0 0 0 - - - 0;
#X floatatom 532 3 5 0 0 0 - - - 0;
#X floatatom 573 4 5 0 0 0 - - - 0;
#X floatatom 461 186 5 0 0 0 - - - 0;
#X floatatom 498 186 5 0 0 0 - - - 0;
#X floatatom 538 188 5 0 0 0 - - - 0;
#X floatatom 579 189 5 0 0 0 - - - 0;
#X obj 507 149 * 0.01;
#X obj 550 149 * 0.01;
#X text 954 691 thanks to Andy Farnell - based on his Designing Sound book Chapter 31: Practical Rolling;
#X floatatom 511 494 0 0 0 0 - - - 0;
#X obj 574 765 *~;
#X obj 697 702 line~;
#X floatatom 729 519 0 0 0 0 - - - 0;
#X obj 697 676 pack 0 200;
#X obj 511 550 exp;
#X floatatom 511 576 6 0 0 0 - - - 0;
#X obj 511 666 /;
#X obj 638 596 * 0.001;
#X obj 806 772 line~;
#X obj 806 747 pack 0 200;
#X floatatom 806 696 0 0 0 0 - - - 0;
#X obj 574 791 +~;
#X obj 511 817 cos~;
#X obj 511 844 *~;
#X obj 511 873 +~;
#X obj 598 724 wrap~;
#X obj 743 767 *~;
#X obj 743 800 +~;
#X obj 680 827 cos~;
#X obj 680 854 *~;
#X obj 638 623 t b f;
#X floatatom 511 692 6 0 0 0 - - - 0;
#X obj 598 697 +~ 0.5;
#X obj 511 765 -~ 0.5;
#X obj 511 791 *~ 0.5;
#X obj 680 766 -~ 0.5;
#X obj 680 799 *~ 0.5;
#X obj 511 603 - 1;
#X obj 511 524 * 0.05776;
#X obj 511 629 * -1;
#X text 545 500 <-- transposition;
#X text 588 506 (halftones);
#X text 574 570 speed;
#X text 573 584 change;
#X text 546 659 tape head;
#X obj 511 723 phasor~;
#X obj 806 723 max 1.5;
#X text 809 629 delay;
#X text 806 647 (msec);
#X obj 729 546 max 1;
#X text 547 672 rotation freq;
#X obj 230 596 delwrite~ seg-del 5000;
#X obj 574 817 vd~ seg-del;
#X obj 743 829 vd~ seg-del;
#X obj 594 154 * 0.001;
#X obj 452 144 * 0.01;
#X floatatom 984 -39 5 0 0 0 - - - 0;
#X obj 812 23 + 0.25;
#X obj 883 -71 * 10;
#X obj 893 305 loadbang;
#X msg 851 489 100;
#X text 773 518 <--window (msec);
#X msg 914 510 0;
#X floatatom 790 -23 5 0 0 0 - - - 0;
#X obj 953 2 t b f;
#X obj 1013 8 + 0.25;
#X obj 14 9 + 100;
#X obj 14 -13 * 1000;
#X obj 63 8 + 100;
#X obj 63 -14 * 1000;
#X obj 130 3 + 100;
#X obj 183 9 + 100;
#X obj 183 -13 * 3000;
#X obj 441 -79 * 2;
#X obj 441 -58 + 0.2;
#X obj 502 -83 * 2;
#X obj 542 -82 * 3;
#X obj 597 -75 * 8;
#X obj 597 -54 + 1;
#X obj 543 -56 + 1;
#X obj 493 -53 + 0.5;
#X obj 130 -18 * 2000;
#X obj 876 -46 * 0.25;
#X obj 958 -65 * 100;
#X obj 891 350 t b b b b;
#X msg 240 44 0 \, 1 200;
#X obj 1118 -32 metro 200;
#X obj 1025 233 *~ 3340;
#X obj 997 527 *~ 0.03;
#X obj 393 515 *~ 1000;
#X obj 240 389 hip~ 100;
#X obj 393 572 *~ 1;
#X obj 344 651 *~ 3;
#X obj 240 487 *~ 0.5;
#X obj 291 487 *~ 0.4;
#X obj 342 487 *~ 0.3;
#X obj 393 487 *~ 0.2;
#X obj 344 700 expr~ tanh($v1);
#X obj 393 544 expr~ tanh($v1);
#X connect 0 0 10 0;
#X connect 1 0 127 0;
#X connect 2 0 11 0;
#X connect 3 0 12 0;
#X connect 5 0 15 0;
#X connect 6 0 142 0;
#X connect 7 0 144 0;
#X connect 8 0 145 0;
#X connect 9 0 146 0;
#X connect 10 0 136 0;
#X connect 11 0 138 0;
#X connect 12 0 150 0;
#X connect 13 0 152 0;
#X connect 14 0 66 0;
#X connect 15 0 141 0;
#X connect 16 0 40 0;
#X connect 17 0 20 0;
#X connect 17 0 23 0;
#X connect 17 0 26 0;
#X connect 17 0 29 0;
#X connect 18 0 20 1;
#X connect 18 1 22 1;
#X connect 18 2 23 1;
#X connect 18 3 25 1;
#X connect 18 4 26 1;
#X connect 18 5 28 1;
#X connect 18 6 29 1;
#X connect 18 7 31 1;
#X connect 19 0 18 0;
#X connect 20 0 21 0;
#X connect 21 0 22 0;
#X connect 22 0 32 0;
#X connect 23 0 24 0;
#X connect 24 0 25 0;
#X connect 25 0 32 0;
#X connect 26 0 27 0;
#X connect 27 0 28 0;
#X connect 28 0 32 0;
#X connect 29 0 30 0;
#X connect 30 0 31 0;
#X connect 31 0 32 0;
#X connect 32 0 39 1;
#X connect 32 0 47 0;
#X connect 33 0 162 0;
#X connect 34 0 163 0;
#X connect 35 0 164 0;
#X connect 36 0 165 0;
#X connect 37 0 38 0;
#X connect 38 0 33 1;
#X connect 38 1 34 1;
#X connect 38 2 35 1;
#X connect 38 3 36 1;
#X connect 38 4 33 2;
#X connect 38 4 34 2;
#X connect 38 4 35 2;
#X connect 38 4 36 2;
#X connect 39 0 159 0;
#X connect 40 0 41 0;
#X connect 41 0 42 0;
#X connect 42 0 43 0;
#X connect 43 0 44 0;
#X connect 44 0 45 0;
#X connect 44 0 17 0;
#X connect 45 0 46 0;
#X connect 46 0 39 0;
#X connect 47 0 48 0;
#X connect 48 0 49 0;
#X connect 49 0 50 0;
#X connect 50 0 156 0;
#X connect 51 0 52 0;
#X connect 51 0 58 1;
#X connect 52 0 53 0;
#X connect 52 0 53 1;
#X connect 53 0 54 0;
#X connect 54 0 55 0;
#X connect 55 0 56 0;
#X connect 56 0 57 0;
#X connect 57 0 58 0;
#X connect 57 0 61 0;
#X connect 58 0 59 0;
#X connect 59 0 60 0;
#X connect 60 0 61 1;
#X connect 61 0 157 0;
#X connect 62 0 33 1;
#X connect 63 0 34 1;
#X connect 64 0 35 1;
#X connect 65 0 36 1;
#X connect 66 0 155 0;
#X connect 67 0 20 1;
#X connect 67 0 124 0;
#X connect 68 0 23 1;
#X connect 68 0 75 0;
#X connect 69 0 26 1;
#X connect 69 0 76 0;
#X connect 70 0 29 1;
#X connect 70 0 123 0;
#X connect 71 0 22 1;
#X connect 72 0 25 1;
#X connect 73 0 28 1;
#X connect 74 0 31 1;
#X connect 75 0 72 0;
#X connect 76 0 73 0;
#X connect 78 0 107 0;
#X connect 79 0 90 0;
#X connect 80 0 79 1;
#X connect 80 0 95 1;
#X connect 81 0 118 0;
#X connect 82 0 80 0;
#X connect 83 0 84 0;
#X connect 84 0 106 0;
#X connect 85 0 100 0;
#X connect 86 0 99 0;
#X connect 87 0 90 1;
#X connect 87 0 96 1;
#X connect 88 0 87 0;
#X connect 89 0 115 0;
#X connect 90 0 121 0;
#X connect 91 0 92 0;
#X connect 92 0 93 0;
#X connect 93 0 161 0;
#X connect 94 0 95 0;
#X connect 94 0 104 0;
#X connect 95 0 96 0;
#X connect 96 0 122 0;
#X connect 97 0 98 0;
#X connect 98 0 93 1;
#X connect 99 0 85 0;
#X connect 99 1 85 1;
#X connect 100 0 114 0;
#X connect 101 0 94 0;
#X connect 102 0 103 0;
#X connect 103 0 91 0;
#X connect 104 0 105 0;
#X connect 105 0 97 0;
#X connect 106 0 108 0;
#X connect 107 0 83 0;
#X connect 108 0 85 0;
#X connect 114 0 79 0;
#X connect 114 0 102 0;
#X connect 114 0 101 0;
#X connect 115 0 88 0;
#X connect 118 0 86 0;
#X connect 118 0 82 0;
#X connect 121 0 92 1;
#X connect 122 0 98 1;
#X connect 123 0 74 0;
#X connect 124 0 71 0;
#X connect 125 0 134 0;
#X connect 126 0 78 0;
#X connect 127 0 151 0;
#X connect 128 0 153 0;
#X connect 129 0 81 0;
#X connect 131 0 89 0;
#X connect 132 0 126 0;
#X connect 133 0 132 0;
#X connect 133 1 126 1;
#X connect 134 0 133 0;
#X connect 135 0 62 0;
#X connect 136 0 135 0;
#X connect 137 0 63 0;
#X connect 138 0 137 0;
#X connect 139 0 64 0;
#X connect 140 0 65 0;
#X connect 141 0 140 0;
#X connect 142 0 143 0;
#X connect 143 0 67 0;
#X connect 144 0 149 0;
#X connect 145 0 148 0;
#X connect 146 0 147 0;
#X connect 147 0 70 0;
#X connect 148 0 69 0;
#X connect 149 0 68 0;
#X connect 150 0 139 0;
#X connect 151 0 132 0;
#X connect 152 0 125 0;
#X connect 153 0 37 0;
#X connect 153 1 19 0;
#X connect 153 2 129 0;
#X connect 153 3 131 0;
#X connect 154 0 16 0;
#X connect 155 0 154 0;
#X connect 156 0 51 0;
#X connect 157 0 39 1;
#X connect 158 0 167 0;
#X connect 159 0 33 0;
#X connect 159 0 34 0;
#X connect 159 0 35 0;
#X connect 159 0 36 0;
#X connect 160 0 120 0;
#X connect 161 0 166 0;
#X connect 162 0 158 0;
#X connect 163 0 158 0;
#X connect 164 0 158 0;
#X connect 165 0 158 0;
#X connect 166 0 4 0;
#X connect 167 0 160 0;
#X restore 23 278 pd sounder_____________________________________________;
#X floatatom 320 433 5 0 0 0 - - - 0;
#X obj 320 405 line;
#X obj 320 377 pack 1 300;
#X obj 323 357 hsl 128 15 0 1 0 0 empty empty empty -2 -8 0 10 #fcfcfc #000000 #000000 0 1;
#X floatatom 463 432 5 0 0 0 - - - 0;
#X obj 463 404 line;
#X obj 463 376 pack 1 300;
#X obj 466 356 hsl 128 15 0 1 0 0 empty empty empty -2 -8 0 10 #fcfcfc #000000 #000000 0 1;
#X obj 23 628 clip~ -1 1;
#X obj 23 602 *~ 1;
#X obj 1208 170 t b b;
#X msg 1029 308 0;
#X connect 1 0 12 0;
#X connect 2 0 28 0;
#X connect 3 0 20 0;
#X connect 4 0 36 0;
#X connect 5 0 16 0;
#X connect 6 0 32 0;
#X connect 7 0 24 0;
#X connect 8 0 40 0;
#X connect 9 0 75 0;
#X connect 10 0 9 0;
#X connect 11 0 10 0;
#X connect 12 0 11 0;
#X connect 13 0 75 1;
#X connect 14 0 13 0;
#X connect 15 0 14 0;
#X connect 16 0 15 0;
#X connect 17 0 75 2;
#X connect 18 0 17 0;
#X connect 19 0 18 0;
#X connect 20 0 19 0;
#X connect 21 0 75 3;
#X connect 22 0 21 0;
#X connect 23 0 22 0;
#X connect 24 0 23 0;
#X connect 25 0 75 4;
#X connect 26 0 25 0;
#X connect 27 0 26 0;
#X connect 28 0 27 0;
#X connect 29 0 75 5;
#X connect 30 0 29 0;
#X connect 31 0 30 0;
#X connect 32 0 31 0;
#X connect 33 0 75 6;
#X connect 34 0 33 0;
#X connect 35 0 34 0;
#X connect 36 0 35 0;
#X connect 37 0 75 7;
#X connect 38 0 37 0;
#X connect 39 0 38 0;
#X connect 40 0 39 0;
#X connect 42 0 49 0;
#X connect 43 0 50 0;
#X connect 43 1 52 0;
#X connect 44 0 49 1;
#X connect 45 0 46 0;
#X connect 45 1 47 0;
#X connect 46 0 42 0;
#X connect 47 0 42 0;
#X connect 48 0 45 0;
#X connect 48 0 75 10;
#X connect 49 0 41 0;
#X connect 50 0 51 0;
#X connect 50 1 44 0;
#X connect 52 0 53 0;
#X connect 52 1 54 0;
#X connect 54 0 49 1;
#X connect 55 0 79 0;
#X connect 56 0 83 0;
#X connect 57 0 43 0;
#X connect 57 0 74 0;
#X connect 58 0 48 0;
#X connect 58 0 74 0;
#X connect 59 0 60 0;
#X connect 60 0 63 0;
#X connect 61 0 62 1;
#X connect 62 0 85 0;
#X connect 63 0 64 0;
#X connect 63 1 86 0;
#X connect 64 0 65 0;
#X connect 64 1 72 0;
#X connect 65 0 73 0;
#X connect 66 0 67 0;
#X connect 67 0 68 0;
#X connect 67 0 69 0;
#X connect 68 0 73 0;
#X connect 70 0 66 0;
#X connect 71 0 61 0;
#X connect 71 0 70 0;
#X connect 72 0 61 0;
#X connect 72 0 70 0;
#X connect 74 0 75 10;
#X connect 75 0 62 0;
#X connect 76 0 75 8;
#X connect 77 0 76 0;
#X connect 78 0 77 0;
#X connect 79 0 78 0;
#X connect 80 0 75 9;
#X connect 81 0 80 0;
#X connect 82 0 81 0;
#X connect 83 0 82 0;
#X connect 84 0 0 0;
#X connect 85 0 84 0;
#X connect 86 0 71 0;
#X connect 86 1 87 0;
#X connect 87 0 74 0;
#X restore 583 724 pd noiseKit_______________________3;
#X obj 141 236 r feedbake_1;
#X obj 676 236 r feedbake_osc1;
#X floatatom 118 162 5 0 0 0 - - - 0;
#X msg 118 123 1;
#X msg 148 123 2;
#X msg 178 123 3;
#X obj 39 122 r kit_number;
#X obj 118 181 s state;
#X obj 90 236 r state;
#X obj 222 236 r state;
#X obj 354 236 r state;
#X obj 486 236 r state;
#X obj 90 350 r state;
#X obj 222 350 r state;
#X obj 354 350 r state;
#X obj 486 350 r state;
#X floatatom 402 178 5 0 0 0 - - - 0;
#X msg 431 141 0;
#X msg 402 141 1;
#X floatatom 463 178 5 0 0 0 - - - 0;
#X msg 492 141 0;
#X msg 463 141 1;
#X floatatom 524 178 5 0 0 0 - - - 0;
#X msg 553 141 0;
#X msg 524 141 1;
#X obj 402 205 s dsp1;
#X obj 463 205 s dsp2;
#X obj 524 205 s dsp3;
#X obj 273 236 r feedbake_2;
#X obj 405 236 r feedbake_3;
#X obj 537 236 r feedbake_4;
#X obj 273 350 r feedbake_6;
#X obj 141 350 r feedbake_5;
#X obj 405 350 r feedbake_7;
#X obj 537 350 r feedbake_8;
#X obj 625 236 r state;
#X obj 779 350 r state;
#X obj 830 350 r feedbake_hold;
#X obj 779 236 r state;
#X obj 126 316 s 2_1;
#X obj 162 316 s 3_1;
#X obj 90 316 s 1_1;
#X obj 222 316 s 1_2;
#X obj 258 316 s 2_2;
#X obj 294 316 s 3_2;
#X obj 354 316 s 1_3;
#X obj 390 316 s 2_3;
#X obj 426 316 s 3_3;
#X obj 486 316 s 1_4;
#X obj 522 316 s 2_4;
#X obj 558 316 s 3_4;
#X obj 90 440 s 1_5;
#X obj 126 440 s 2_5;
#X obj 162 440 s 3_5;
#X obj 222 440 s 1_6;
#X obj 258 440 s 2_6;
#X obj 294 440 s 3_6;
#X obj 354 440 s 1_7;
#X obj 390 440 s 2_7;
#X obj 426 440 s 3_7;
#X obj 486 440 s 1_8;
#X obj 522 440 s 2_8;
#X obj 558 440 s 3_8;
#X obj 779 316 s 1_pad;
#X obj 828 316 s 2_pad;
#X obj 779 440 s 1_hold;
#X obj 834 440 s 2_hold;
#X obj 889 440 s 3_hold;
#X obj 877 316 s 3_pad;
#X obj 625 316 s 1_o1;
#X obj 626 350 r state;
#X obj 669 440 s 2_o2;
#X obj 668 316 s 2_o1;
#X obj 711 316 s 3_o1;
#X obj 626 440 s 1_o2;
#X obj 712 440 s 3_o2;
#X obj 677 350 r feedbake_osc2;
#X msg 209 123 0;
#X obj 551 73 select 1 2 3 0;
#X obj 878 172 r pad1OFF;
#X obj 878 192 r pad2OFF;
#X obj 878 212 r pad3OFF;
#X obj 878 232 r pad4OFF;
#X obj 641 205 s 1_hold;
#X obj 696 205 s 2_hold;
#X obj 751 205 s 3_hold;
#X obj 895 147 s 2_o2;
#X obj 852 147 s 1_o2;
#X obj 938 147 s 3_o2;
#X obj 723 147 s 1_o1;
#X obj 766 147 s 2_o1;
#X obj 809 147 s 3_o1;
#X obj 91 292 route 1 2 3;
#X obj 91 256 f;
#X obj 154 257 f;
#X obj 91 274 list append;
#X obj 90 410 route 1 2 3;
#X obj 90 374 f;
#X obj 153 375 f;
#X obj 90 392 list append;
#X obj 222 294 route 1 2 3;
#X obj 222 258 f;
#X obj 285 259 f;
#X obj 222 276 list append;
#X obj 354 295 route 1 2 3;
#X obj 354 259 f;
#X obj 417 260 f;
#X obj 354 277 list append;
#X obj 486 296 route 1 2 3;
#X obj 486 260 f;
#X obj 549 261 f;
#X obj 486 278 list append;
#X obj 626 295 route 1 2 3;
#X obj 626 259 f;
#X obj 689 260 f;
#X obj 626 277 list append;
#X obj 780 295 route 1 2 3;
#X obj 780 259 f;
#X obj 843 260 f;
#X obj 780 277 list append;
#X obj 223 411 route 1 2 3;
#X obj 223 375 f;
#X obj 286 376 f;
#X obj 223 393 list append;
#X obj 355 412 route 1 2 3;
#X obj 355 376 f;
#X obj 418 377 f;
#X obj 355 394 list append;
#X obj 487 413 route 1 2 3;
#X obj 487 377 f;
#X obj 550 378 f;
#X obj 487 395 list append;
#X obj 627 412 route 1 2 3;
#X obj 627 376 f;
#X obj 690 377 f;
#X obj 627 394 list append;
#X obj 782 414 route 1 2 3;
#X obj 781 376 f;
#X obj 844 377 f;
#X obj 781 394 list append;
#X obj 115 80 loadbang;
#X text 194 39 FIXME: comb~ and kink~ replace;
#X msg 672 86 0;
#X obj 548 42 r state;
#X connect 1 0 32 12;
#X connect 2 0 0 0;
#X connect 2 0 0 1;
#X connect 3 0 2 0;
#X connect 4 0 1 0;
#X connect 5 0 32 0;
#X connect 6 0 32 1;
#X connect 7 0 32 2;
#X connect 8 0 32 3;
#X connect 9 0 32 4;
#X connect 10 0 32 5;
#X connect 11 0 32 6;
#X connect 12 0 32 7;
#X connect 13 0 32 11;
#X connect 14 0 32 10;
#X connect 15 0 32 8;
#X connect 16 0 32 9;
#X connect 17 0 31 12;
#X connect 18 0 17 0;
#X connect 19 0 31 0;
#X connect 20 0 31 1;
#X connect 21 0 31 2;
#X connect 22 0 31 3;
#X connect 23 0 31 4;
#X connect 24 0 31 5;
#X connect 25 0 31 6;
#X connect 26 0 31 7;
#X connect 27 0 31 8;
#X connect 28 0 31 9;
#X connect 29 0 31 10;
#X connect 30 0 31 11;
#X connect 31 0 3 0;
#X connect 32 0 3 0;
#X connect 33 0 47 12;
#X connect 34 0 47 0;
#X connect 35 0 47 1;
#X connect 36 0 47 2;
#X connect 37 0 47 3;
#X connect 38 0 47 4;
#X connect 39 0 47 5;
#X connect 40 0 47 6;
#X connect 41 0 47 7;
#X connect 42 0 47 8;
#X connect 43 0 47 9;
#X connect 44 0 47 10;
#X connect 45 0 47 11;
#X connect 46 0 33 0;
#X connect 47 0 3 0;
#X connect 48 0 142 0;
#X connect 49 0 162 0;
#X connect 50 0 55 0;
#X connect 51 0 50 0;
#X connect 52 0 50 0;
#X connect 53 0 50 0;
#X connect 54 0 50 0;
#X connect 56 0 141 0;
#X connect 57 0 149 0;
#X connect 58 0 153 0;
#X connect 59 0 157 0;
#X connect 60 0 145 0;
#X connect 61 0 169 0;
#X connect 62 0 173 0;
#X connect 63 0 177 0;
#X connect 64 0 73 0;
#X connect 65 0 64 0;
#X connect 66 0 64 0;
#X connect 67 0 74 0;
#X connect 68 0 67 0;
#X connect 69 0 67 0;
#X connect 70 0 75 0;
#X connect 71 0 70 0;
#X connect 72 0 70 0;
#X connect 76 0 150 0;
#X connect 77 0 154 0;
#X connect 78 0 158 0;
#X connect 79 0 170 0;
#X connect 80 0 146 0;
#X connect 81 0 174 0;
#X connect 82 0 178 0;
#X connect 83 0 161 0;
#X connect 84 0 185 0;
#X connect 85 0 186 0;
#X connect 86 0 165 0;
#X connect 118 0 181 0;
#X connect 124 0 182 0;
#X connect 125 0 50 0;
#X connect 126 0 66 0;
#X connect 126 0 71 0;
#X connect 126 0 68 0;
#X connect 126 0 190 0;
#X connect 126 1 69 0;
#X connect 126 1 71 0;
#X connect 126 1 65 0;
#X connect 126 1 190 0;
#X connect 126 2 72 0;
#X connect 126 2 68 0;
#X connect 126 2 65 0;
#X connect 126 2 190 0;
#X connect 126 3 71 0;
#X connect 126 3 68 0;
#X connect 126 3 65 0;
#X connect 127 0 166 0;
#X connect 128 0 166 0;
#X connect 129 0 166 0;
#X connect 130 0 166 0;
#X connect 140 0 89 0;
#X connect 140 1 87 0;
#X connect 140 2 88 0;
#X connect 141 0 143 0;
#X connect 142 0 143 1;
#X connect 143 0 140 0;
#X connect 144 0 99 0;
#X connect 144 1 100 0;
#X connect 144 2 101 0;
#X connect 145 0 147 0;
#X connect 146 0 147 1;
#X connect 147 0 144 0;
#X connect 148 0 90 0;
#X connect 148 1 91 0;
#X connect 148 2 92 0;
#X connect 149 0 151 0;
#X connect 150 0 151 1;
#X connect 151 0 148 0;
#X connect 152 0 93 0;
#X connect 152 1 94 0;
#X connect 152 2 95 0;
#X connect 153 0 155 0;
#X connect 154 0 155 1;
#X connect 155 0 152 0;
#X connect 156 0 96 0;
#X connect 156 1 97 0;
#X connect 156 2 98 0;
#X connect 157 0 159 0;
#X connect 158 0 159 1;
#X connect 159 0 156 0;
#X connect 160 0 117 0;
#X connect 160 1 120 0;
#X connect 160 2 121 0;
#X connect 161 0 163 0;
#X connect 162 0 163 1;
#X connect 163 0 160 0;
#X connect 164 0 111 0;
#X connect 164 1 112 0;
#X connect 164 2 116 0;
#X connect 165 0 167 0;
#X connect 166 0 167 1;
#X connect 167 0 164 0;
#X connect 168 0 102 0;
#X connect 168 1 103 0;
#X connect 168 2 104 0;
#X connect 169 0 171 0;
#X connect 170 0 171 1;
#X connect 171 0 168 0;
#X connect 172 0 105 0;
#X connect 172 1 106 0;
#X connect 172 2 107 0;
#X connect 173 0 175 0;
#X connect 174 0 175 1;
#X connect 175 0 172 0;
#X connect 176 0 108 0;
#X connect 176 1 109 0;
#X connect 176 2 110 0;
#X connect 177 0 179 0;
#X connect 178 0 179 1;
#X connect 179 0 176 0;
#X connect 180 0 122 0;
#X connect 180 1 119 0;
#X connect 180 2 123 0;
#X connect 181 0 183 0;
#X connect 182 0 183 1;
#X connect 183 0 180 0;
#X connect 184 0 113 0;
#X connect 184 1 114 0;
#X connect 184 2 115 0;
#X connect 185 0 187 0;
#X connect 186 0 187 1;
#X connect 187 0 184 0;
#X connect 188 0 51 0;
#X connect 190 0 131 0;
#X connect 190 0 132 0;
#X connect 190 0 133 0;
#X connect 190 0 137 0;
#X connect 190 0 138 0;
#X connect 190 0 139 0;
#X connect 190 0 135 0;
#X connect 190 0 134 0;
#X connect 190 0 136 0;
#X connect 191 0 126 0;
