#N canvas 751 46 598 644 10;
#N canvas 403 23 793 577 benjolinOsc1 0;
#X obj 237 180 *~;
#X obj 252 154 line~;
#X obj 252 133 pack 0 50;
#X obj 252 108 / 2;
#X obj 237 56 r~ runglerOut;
#X obj 252 81 r oscRungle1;
#X obj 72 55 r oscFreq1;
#X obj 85 330 throw~ scope0;
#X obj 72 142 line~;
#X obj 73 283 bl-tri.mmb~;
#X obj 73 196 +~;
#X obj 72 119 pack 0 50;
#X obj 73 253 mtof~;
#X obj 194 315 expr~ if ($v1 > 0.5 \, 1 \, 0);
#X obj 192 382 throw~ scope1;
#X obj 233 358 s~ oscPulse1;
#X obj 69 363 s~ triangle1;
#X obj 73 230 clip~ -60 127;
#X connect 0 0 10 1;
#X connect 1 0 0 1;
#X connect 2 0 1 0;
#X connect 3 0 2 0;
#X connect 4 0 0 0;
#X connect 5 0 3 0;
#X connect 6 0 11 0;
#X connect 8 0 10 0;
#X connect 9 0 7 0;
#X connect 9 0 13 0;
#X connect 9 0 16 0;
#X connect 10 0 17 0;
#X connect 11 0 8 0;
#X connect 12 0 9 0;
#X connect 13 0 15 0;
#X connect 13 0 14 0;
#X connect 17 0 12 0;
#X restore 31 25 pd benjolinOsc1;
#N canvas 113 221 829 528 comparator 0;
#X obj 102 76 +~;
#X obj 102 157 s~ PWMmix;
#X obj 98 113 expr~ if ($v1 > 0.5 \, 1 \, 0);
#X obj 54 35 r~ triangle1;
#X obj 182 38 r~ triangle2;
#X connect 0 0 2 0;
#X connect 2 0 1 0;
#X connect 3 0 0 0;
#X connect 4 0 0 1;
#X restore 31 67 pd comparator;
#N canvas 411 23 879 694 rungler 0;
#X text 575 550 Sept 2016;
#X text 575 561 macumbista@gmail.com;
#X obj 35 304 samphold~;
#X obj 104 305 samphold~;
#X obj 180 305 samphold~;
#X obj 249 306 samphold~;
#X obj 320 305 samphold~;
#X obj 390 305 samphold~;
#X obj 460 305 samphold~;
#X obj 530 305 samphold~;
#X obj 161 103 clip~ 0 1;
#X text 18 401 3 bit DAC;
#X text 574 536 Derek Holzer;
#X text 617 275 shift register based on 4021 CMOS IC;
#X text 380 580 RUNGLER concept and analog design by Rob Hordijk 2009
;
#X obj 88 399 expr~ (($v1/8)+($v2/4)+($v3/2));
#X obj 161 23 r~ oscPulse1;
#X obj 581 21 r~ oscPulse2;
#X obj 88 457 s~ runglerOut;
#X obj 109 251 s~ XORpulse;
#X obj 35 332 s~ st-1-sh;
#X obj 104 332 s~ st-2-sh;
#X obj 180 332 s~ st-3-sh;
#X obj 249 332 s~ st-4-sh;
#X obj 320 332 s~ st-5-sh;
#X obj 390 332 s~ st-6-sh;
#X obj 460 332 s~ st-7-sh;
#X obj 104 279 r~ st-1-sh;
#X obj 180 279 r~ st-2-sh;
#X obj 249 279 r~ st-3-sh;
#X obj 320 279 r~ st-4-sh;
#X obj 390 279 r~ st-5-sh;
#X obj 460 279 r~ st-6-sh;
#X obj 530 279 r~ st-7-sh;
#X obj 173 132 expr~ $v1 < $v2;
#X obj 50 140 expr~ $v1 > $v2;
#X obj 101 191 expr~ $v1 == $v2;
#X obj 105 219 expr~ ($v1*-1)+1;
#X obj 163 62 expr~ $v1 > 0.5;
#X obj 501 172 expr~ $v1 > 0.5;
#X obj 42 550 throw~ scope6;
#X connect 2 0 20 0;
#X connect 3 0 21 0;
#X connect 4 0 22 0;
#X connect 5 0 23 0;
#X connect 6 0 24 0;
#X connect 7 0 15 0;
#X connect 7 0 25 0;
#X connect 8 0 15 1;
#X connect 8 0 26 0;
#X connect 9 0 15 2;
#X connect 10 0 34 0;
#X connect 10 0 35 0;
#X connect 15 0 18 0;
#X connect 15 0 40 0;
#X connect 16 0 38 0;
#X connect 17 0 39 0;
#X connect 27 0 3 0;
#X connect 28 0 4 0;
#X connect 29 0 5 0;
#X connect 30 0 6 0;
#X connect 31 0 7 0;
#X connect 32 0 8 0;
#X connect 33 0 9 0;
#X connect 34 0 36 0;
#X connect 35 0 36 0;
#X connect 35 0 9 0;
#X connect 36 0 37 0;
#X connect 37 0 19 0;
#X connect 37 0 2 0;
#X connect 38 0 10 0;
#X connect 39 0 9 1;
#X connect 39 0 8 1;
#X connect 39 0 7 1;
#X connect 39 0 6 1;
#X connect 39 0 5 1;
#X connect 39 0 4 1;
#X connect 39 0 3 1;
#X connect 39 0 2 1;
#X restore 31 87 pd rungler;
#N canvas 21 67 950 650 filter 0;
#X obj 194 367 +~ 100;
#X obj 194 391 dbtorms~;
#X obj 154 457 multimode.mmb~;
#X obj 142 521 biquad.mmb~;
#X obj 154 256 mtof~;
#X obj 259 104 line~;
#X msg 259 78 \$1 50;
#X obj 353 283 / 127;
#X obj 353 339 line~;
#X msg 353 309 \$1 50;
#X obj 194 339 line~;
#X msg 194 309 \$1 50;
#X obj 194 415 clip~ 0 32;
#X text 448 392 Derek Holzer;
#X text 448 405 Sept 2016;
#X text 448 416 macumbista@gmail.com;
#X obj 342 135 *~;
#X obj 342 51 / 127;
#X obj 342 107 line~;
#X msg 342 77 \$1 50;
#X obj 437 73 *~ 127;
#X obj 142 108 +~;
#X obj 529 136 *~;
#X obj 529 52 / 127;
#X obj 529 108 line~;
#X msg 529 78 \$1 50;
#X obj 617 79 *~ 127;
#X obj 154 202 expr~ $v1+$v2+$v3+$v4;
#X text 446 254 FILRES: -3dB to 30dB;
#X text 448 368 MULTIMODE RESONANT VOLTAGE CONTROLLED FILTER;
#X obj 157 78 *~ 0.5;
#X obj 154 229 clip~ 0 127;
#X text 447 290 FILTYPE: Mode: 0 = lowpass 0.5 = bandpass 1 = highpass
;
#X obj 257 25 r filterFreq;
#X obj 342 24 r filterRungle;
#X obj 438 24 r~ runglerOut;
#X obj 619 24 r~ triangle2;
#X obj 391 227 r filterType;
#X obj 339 248 f;
#X msg 342 227 0.5;
#X obj 345 205 loadbang;
#X obj 194 256 r filterRes;
#X obj 157 52 r~ runglerOut;
#X obj 529 25 r filterSweep;
#X obj 142 548 s~ filterOut;
#X obj 142 25 r~ PWMmix;
#X obj 108 588 throw~ scope7;
#X obj 246 146 throw~ scope4;
#X obj 363 157 throw~ scope5;
#X connect 0 0 1 0;
#X connect 1 0 12 0;
#X connect 2 0 3 1;
#X connect 2 1 3 2;
#X connect 2 2 3 3;
#X connect 2 3 3 4;
#X connect 2 4 3 5;
#X connect 3 0 44 0;
#X connect 3 0 46 0;
#X connect 4 0 2 0;
#X connect 5 0 27 0;
#X connect 5 0 47 0;
#X connect 6 0 5 0;
#X connect 7 0 9 0;
#X connect 8 0 2 2;
#X connect 9 0 8 0;
#X connect 10 0 0 0;
#X connect 11 0 10 0;
#X connect 12 0 2 1;
#X connect 16 0 27 2;
#X connect 16 0 48 0;
#X connect 17 0 19 0;
#X connect 18 0 16 0;
#X connect 19 0 18 0;
#X connect 20 0 16 1;
#X connect 21 0 3 0;
#X connect 22 0 27 3;
#X connect 23 0 25 0;
#X connect 24 0 22 0;
#X connect 25 0 24 0;
#X connect 26 0 22 1;
#X connect 27 0 31 0;
#X connect 30 0 21 1;
#X connect 31 0 4 0;
#X connect 33 0 6 0;
#X connect 34 0 17 0;
#X connect 35 0 20 0;
#X connect 36 0 26 0;
#X connect 37 0 7 0;
#X connect 38 0 7 0;
#X connect 39 0 38 0;
#X connect 40 0 39 0;
#X connect 41 0 11 0;
#X connect 42 0 30 0;
#X connect 43 0 23 0;
#X connect 45 0 21 0;
#X restore 31 108 pd filter;
#N canvas 0 23 421 477 benjolinOsc2 0;
#X obj 237 180 *~;
#X obj 252 154 line~;
#X obj 252 133 pack 0 50;
#X obj 252 108 / 2;
#X obj 237 56 r~ runglerOut;
#X obj 72 142 line~;
#X obj 73 282 bl-tri.mmb~;
#X obj 73 195 +~;
#X obj 72 119 pack 0 50;
#X obj 73 252 mtof~;
#X obj 73 229 clip~ -60 127;
#X obj 194 314 expr~ if ($v1 > 0.5 \, 1 \, 0);
#X obj 72 63 r oscFreq2;
#X obj 252 81 r oscRungle2;
#X obj 228 354 s~ oscPulse2;
#X obj 192 381 throw~ scope3;
#X obj 85 329 throw~ scope2;
#X obj 69 362 s~ triangle2;
#X connect 0 0 7 1;
#X connect 1 0 0 1;
#X connect 2 0 1 0;
#X connect 3 0 2 0;
#X connect 4 0 0 0;
#X connect 5 0 7 0;
#X connect 6 0 11 0;
#X connect 6 0 16 0;
#X connect 6 0 17 0;
#X connect 7 0 10 0;
#X connect 8 0 5 0;
#X connect 9 0 6 0;
#X connect 10 0 9 0;
#X connect 11 0 14 0;
#X connect 11 0 15 0;
#X connect 12 0 8 0;
#X connect 13 0 3 0;
#X restore 31 46 pd benjolinOsc2;
#N canvas 50 81 848 555 outputStage 0;
#X obj 135 30 r~ triangle2;
#X obj 252 30 r~ oscPulse1;
#X obj 338 31 r~ oscPulse2;
#X obj 424 31 r~ PWMmix;
#X obj 491 32 r~ runglerOut;
#X obj 587 33 r~ filterOut;
#X obj 50 29 r~ triangle1;
#X obj 47 64 r~ XORpulse;
#X obj 559 167 clip~ -1 1;
#X obj 570 84 hip~ 1;
#X obj 490 127 r onLoad;
#X msg 490 148 1 500;
#X obj 490 169 vline~;
#X obj 421 128 r onExit;
#X msg 420 149 0 500;
#X obj 504 387 *~;
#X obj 493 463 dac~;
#X obj 496 424 *~ 0.5;
#X obj 515 198 r masterVolume;
#X obj 493 348 *~;
#X obj 575 341 *~;
#X obj 513 240 pack f 300;
#X obj 514 267 line;
#X obj 583 234 pack f 300;
#X obj 584 261 line;
#X floatatom 498 287 5 0 0 0 - - -;
#X connect 5 0 9 0;
#X connect 8 0 20 0;
#X connect 9 0 8 0;
#X connect 10 0 11 0;
#X connect 11 0 12 0;
#X connect 12 0 19 0;
#X connect 13 0 14 0;
#X connect 14 0 12 0;
#X connect 15 0 17 0;
#X connect 17 0 16 0;
#X connect 17 0 16 1;
#X connect 18 0 21 0;
#X connect 18 0 23 0;
#X connect 19 0 15 0;
#X connect 20 0 15 1;
#X connect 21 0 22 0;
#X connect 22 0 19 1;
#X connect 23 0 24 0;
#X connect 24 0 20 1;
#X connect 25 0 19 1;
#X connect 25 0 20 1;
#X restore 32 148 pd outputStage;
#N canvas 49 106 1295 691 scopes 0;
#X obj 48 73 clip~ -1 1;
#X obj 80 102 loadbang;
#X obj 85 152 metro 100;
#X text 84 124 1;
#X msg 84 124 1;
#N canvas 0 22 450 300 (subpatch) 0;
#X array scope0 512 float 2;
#X coords 0 1 512 -1 200 140 1 0 0;
#X restore 163 70 graph;
#X obj 53 296 clip~ -1 1;
#X obj 85 325 loadbang;
#X obj 90 375 metro 100;
#X text 89 347 1;
#X msg 89 347 1;
#N canvas 0 22 450 300 (subpatch) 0;
#X array scope1 512 float 2;
#X coords 0 1 512 -1 200 140 1 0 0;
#X restore 168 293 graph;
#X obj 56 522 clip~ -1 1;
#X obj 88 551 loadbang;
#X obj 93 601 metro 100;
#X text 92 573 1;
#X msg 92 573 1;
#N canvas 0 22 450 300 (subpatch) 0;
#X array scope2 512 float 2;
#X coords 0 1 512 -1 200 140 1 0 0;
#X restore 171 519 graph;
#X obj 426 68 clip~ -1 1;
#X obj 458 97 loadbang;
#X obj 463 147 metro 100;
#X text 462 119 1;
#X msg 462 119 1;
#N canvas 0 22 450 300 (subpatch) 0;
#X array scope3 512 float 2;
#X coords 0 1 512 -1 200 140 1 0 0;
#X restore 541 65 graph;
#X obj 432 298 clip~ -1 1;
#X obj 464 327 loadbang;
#X obj 469 377 metro 100;
#X text 468 349 1;
#X msg 468 349 1;
#N canvas 0 22 450 300 (subpatch) 0;
#X array scope4 512 float 2;
#X coords 0 1 512 -1 200 140 1 0 0;
#X restore 547 295 graph;
#X obj 437 521 clip~ -1 1;
#X obj 469 550 loadbang;
#X obj 474 600 metro 100;
#X text 473 572 1;
#X msg 473 572 1;
#N canvas 0 22 450 300 (subpatch) 0;
#X array scope5 256 float 2;
#X coords 0 1 256 -1 200 140 1 0 0;
#X restore 552 518 graph;
#X obj 26 13 catch~ scope0;
#X obj 31 236 catch~ scope1;
#X obj 34 462 catch~ scope2;
#X obj 404 8 catch~ scope3;
#X obj 410 238 catch~ scope4;
#X obj 415 461 catch~ scope5;
#X obj 54 625 tabwrite~ scope2;
#X obj 424 171 tabwrite~ scope3;
#X obj 430 401 tabwrite~ scope4;
#X obj 435 624 tabwrite~ scope5;
#X obj 46 176 tabwrite~ scope0;
#X obj 51 399 tabwrite~ scope1;
#X obj 808 64 clip~ -1 1;
#X obj 840 93 loadbang;
#X obj 845 143 metro 100;
#X text 844 115 1;
#X msg 844 115 1;
#N canvas 0 22 450 300 (subpatch) 0;
#X array scope6 256 float 2;
#X coords 0 1 256 -1 200 140 1 0 0;
#X restore 923 61 graph;
#X obj 786 4 catch~ scope6;
#X obj 806 167 tabwrite~ scope6;
#X obj 809 290 clip~ -1 1;
#X obj 841 319 loadbang;
#X obj 846 369 metro 100;
#X text 845 341 1;
#X msg 845 341 1;
#N canvas 0 22 450 300 (subpatch) 0;
#X array scope7 512 float 2;
#X coords 0 1 512 -1 200 140 1 0 0;
#X restore 924 287 graph;
#X obj 787 230 catch~ scope7;
#X obj 807 393 tabwrite~ scope7;
#X obj 810 527 clip~ -1 1;
#X obj 842 556 loadbang;
#X obj 847 606 metro 100;
#X text 846 578 1;
#X msg 846 578 1;
#N canvas 0 22 450 300 (subpatch) 0;
#X array previewScope 256 float 2;
#X coords 0 1 256 -1 200 140 1 0 0;
#X restore 925 524 graph;
#X obj 788 467 catch~ previewScope;
#X obj 786 635 tabwrite~ previewScope;
#X connect 0 0 46 0;
#X connect 1 0 4 0;
#X connect 2 0 46 0;
#X connect 4 0 2 0;
#X connect 6 0 47 0;
#X connect 7 0 10 0;
#X connect 8 0 47 0;
#X connect 10 0 8 0;
#X connect 12 0 42 0;
#X connect 13 0 16 0;
#X connect 14 0 42 0;
#X connect 16 0 14 0;
#X connect 18 0 43 0;
#X connect 19 0 22 0;
#X connect 20 0 43 0;
#X connect 22 0 20 0;
#X connect 24 0 44 0;
#X connect 25 0 28 0;
#X connect 26 0 44 0;
#X connect 28 0 26 0;
#X connect 30 0 45 0;
#X connect 31 0 34 0;
#X connect 32 0 45 0;
#X connect 34 0 32 0;
#X connect 36 0 0 0;
#X connect 37 0 6 0;
#X connect 38 0 12 0;
#X connect 39 0 18 0;
#X connect 40 0 24 0;
#X connect 41 0 30 0;
#X connect 48 0 55 0;
#X connect 49 0 52 0;
#X connect 50 0 55 0;
#X connect 52 0 50 0;
#X connect 54 0 48 0;
#X connect 56 0 63 0;
#X connect 57 0 60 0;
#X connect 58 0 63 0;
#X connect 60 0 58 0;
#X connect 62 0 56 0;
#X connect 64 0 71 0;
#X connect 65 0 68 0;
#X connect 66 0 71 0;
#X connect 68 0 66 0;
#X connect 70 0 64 0;
#X restore 31 128 pd scopes;
#X obj 212 93 s oscFreq1;
#X obj 217 71 hsl 128 15 -60 80 0 0 empty empty empty -2 -8 0 10 -262144
-1 -1 0 1;
#X obj 214 164 hsl 128 15 -60 80 0 0 empty empty empty -2 -8 0 10 -262144
-1 -1 0 1;
#X obj 211 186 s oscFreq2;
#X obj 403 71 hsl 128 15 0 127 0 0 empty empty empty -2 -8 0 10 -262144
-1 -1 0 1;
#X obj 402 164 hsl 128 15 0 127 0 0 empty empty empty -2 -8 0 10 -262144
-1 -1 0 1;
#X obj 400 93 s oscRungle1;
#X obj 399 186 s oscRungle2;
#X obj 215 264 hsl 128 15 50 127 0 0 empty empty empty -2 -8 0 10 -262144
-1 -1 0 1;
#X obj 402 263 hsl 128 15 0 127 0 0 empty empty empty -2 -8 0 10 -262144
-1 -1 0 1;
#X obj 214 366 hsl 128 15 0 127 0 0 empty empty empty -2 -8 0 10 -262144
-1 -1 0 1;
#X obj 402 367 hsl 128 15 -3 30 0 0 empty empty empty -2 -8 0 10 -262144
-1 -1 0 1;
#X obj 212 286 s filterFreq;
#X obj 211 388 s filterRungle;
#X obj 399 285 s filterSweep;
#X obj 399 389 s filterRes;
#X floatatom 176 94 5 0 0 0 - - -;
#X floatatom 174 186 5 0 0 0 - - -;
#X floatatom 365 93 5 0 0 0 - - -;
#X floatatom 361 187 5 0 0 0 - - -;
#X floatatom 175 389 5 0 0 0 - - -;
#X floatatom 362 388 5 0 0 0 - - -;
#X floatatom 176 288 5 0 0 0 - - -;
#X floatatom 362 285 5 0 0 0 - - -;
#X obj 37 398 loadbang;
#X obj 214 21 r control0;
#X obj 400 21 r control1;
#X obj 212 117 r control2;
#X obj 401 116 r control3;
#X obj 213 214 r control4;
#X obj 400 221 r control5;
#X obj 211 311 r control6;
#X obj 400 311 r control7;
#X obj 400 45 * 127;
#X obj 400 140 * 127;
#X obj 401 242 * 127;
#X obj 211 334 * 127;
#X obj 213 235 * 77;
#X obj 251 236 + 50;
#X obj 441 44 abs;
#X obj 442 141 abs;
#X obj 176 240 abs;
#X obj 441 242 abs;
#X obj 252 334 abs;
#X obj 54 423 s onLoad;
#X obj 30 333 bng 15 250 50 0 empty empty empty 17 7 0 10 -262144 -1
-1;
#X obj 30 359 s onExit;
#X obj 16 397 bng 15 250 50 0 empty empty empty 17 7 0 10 -262144 -1
-1;
#X obj 440 346 -3;
#X obj 400 336 * 33;
#X obj 215 45 * 140;
#X obj 259 44 abs;
#X obj 213 143 * 140;
#X obj 255 139 abs;
#X obj 285 141 - 60;
#X obj 289 45 - 60;
#X msg 42 455 \; oscFreq1 0 \; oscFreq2 0 \; oscRungle1 0 \; oscRungle2
0 \; filterFreq 0 \; filterSweep 0 \; filterRungle 0 \; filterRes 0
\; masterVolume 1 \; \;;
#X msg 165 455 \; oscFreq1 100 \; oscFreq2 30 \; oscRungle1 100 \;
oscRungle2 80 \; filterFreq 80 \; filterSweep 50 \; filterRungle 30
\; filterRes 75 \; masterVolume 1 \; \;;
#X msg 288 453 \; oscFreq1 40 \; oscFreq2 3 \; oscRungle1 10 \; oscRungle2
10 \; filterFreq 50 \; filterSweep 50 \; filterRungle 30 \; filterRes
127 \; masterVolume 1 \; \;;
#X msg 410 450 \; oscFreq1 80 \; oscFreq2 25 \; oscRungle1 88 \; oscRungle2
68 \; filterFreq 119 \; filterSweep 85 \; filterRungle 13 \; filterRes
72 \; masterVolume 1 \; \;;
#X connect 8 0 7 0;
#X connect 8 0 23 0;
#X connect 9 0 10 0;
#X connect 9 0 24 0;
#X connect 11 0 13 0;
#X connect 11 0 25 0;
#X connect 12 0 14 0;
#X connect 12 0 26 0;
#X connect 15 0 19 0;
#X connect 15 0 29 0;
#X connect 16 0 21 0;
#X connect 16 0 30 0;
#X connect 17 0 20 0;
#X connect 17 0 27 0;
#X connect 18 0 22 0;
#X connect 18 0 28 0;
#X connect 31 0 63 0;
#X connect 31 0 51 0;
#X connect 32 0 57 0;
#X connect 33 0 40 0;
#X connect 34 0 59 0;
#X connect 35 0 41 0;
#X connect 36 0 48 0;
#X connect 37 0 42 0;
#X connect 38 0 43 0;
#X connect 39 0 56 0;
#X connect 40 0 46 0;
#X connect 41 0 47 0;
#X connect 42 0 49 0;
#X connect 43 0 50 0;
#X connect 44 0 45 0;
#X connect 45 0 15 0;
#X connect 46 0 11 0;
#X connect 47 0 12 0;
#X connect 48 0 44 0;
#X connect 49 0 16 0;
#X connect 50 0 17 0;
#X connect 52 0 53 0;
#X connect 54 0 51 0;
#X connect 55 0 18 0;
#X connect 56 0 55 0;
#X connect 57 0 58 0;
#X connect 58 0 62 0;
#X connect 59 0 60 0;
#X connect 60 0 61 0;
#X connect 61 0 9 0;
#X connect 62 0 8 0;
